<ttFont>
          <CharString index="0">
            rmoveto
            110 114 57 85 59 hvcurveto
            -149 48 rlineto
            -35 -22 -34 -19 -42 hhcurveto
            -46 -18 21 57 hvcurveto
            29 hlineto
            212 111 61 118 96 -76 57 -127 -193 -154 -143 -180 -135 89 -88 137 hvcurveto
            87 411 rmoveto
            30 21 -16 -23 -33 -36 -11 -102 hvcurveto
            -7 hlineto
            50 21 34 33 39 hhcurveto
            return
          </CharString>
          <CharString index="1">
            132 -10 rmoveto
            83 70 27 65 60 7 callsubr
            -6 -6 vvcurveto
            -53 41 -20 57 20 -11 callsubr
            vhcurveto
            -90 callgsubr
            316 -81 callgsubr
            -69 -322 rlineto
            -45 -39 -28 -9 -23 hhcurveto
            -24 -14 16 30 8 1 9 -47 callsubr
            -189 hlineto
            -74 -346 rlineto
            -5 -24 -3 -22 -20 vvcurveto
            -81 43 -43 80 vhcurveto
            return
          </CharString>
          <CharString index="2">
            rmoveto
            211 130 164 163 119 -72 100 -153 -212 -129 -163 -164 -118 72 -101 153 hvcurveto
            -38 callsubr
            rmoveto
            -38 -23 31 51 83 50 61 59 38 23 -31 -51 -83 -50 -61 -59 hvcurveto
            return
          </CharString>
          <CharString index="3">
            -38 callsubr
            rlineto
            -19 1 -8 7 18 vvcurveto
            6 1 8 2 10 vhcurveto
            return
          </CharString>
          <CharString index="4">
            57 -18 -50 31 -70 hhcurveto
            -161 -138 -149 -183 -117 61 -87 107 63 64 27 55 39 hvcurveto
            -7 -34 rlineto
            -94 -19 -64 -36 -64 hhcurveto
            -56 -47 28 36 -28 hvcurveto
            -122 -104 rlineto
            -65 48 71 -36 105 hhcurveto
            118 373 rmoveto
            -44 -27 34 49 74 56 69 55 35 29 -30 -48 7 hvcurveto
            -20 -94 rlineto
            -36 -32 -27 -18 -32 hhcurveto
            return
          </CharString>
          <CharString index="5">
            -61 hmoveto
            199 hlineto
            65 139 -21 callsubr
            7 -139 rlineto
            198 hlineto
            -79 710 -20 callgsubr
            -61 -441 rmoveto
            103 220 8 -220 rlineto
            return
          </CharString>
          <CharString index="6">
            rmoveto
            30 140 -18 callgsubr
            -30 -140 rlineto
            381 hmoveto
            29 -15 callsubr
            -155 hlineto
            -30 -140 rlineto
            return
          </CharString>
          <CharString index="7">
            46 218 rlineto
            59 hlineto
            69 -218 rlineto
            220 hlineto
            -85 261 rlineto
            85 56 56 95 93 vvcurveto
            104 -67 101 -115 vhcurveto
            -312 1 callgsubr
            278 388 rmoveto
            32 152 rlineto
            103 hlineto
            16 15 -20 -35 -57 -36 -40 -22 hvcurveto
            return
          </CharString>
          <CharString index="8">
            rmoveto
            149 101 84 122 3 callsubr
            hvcurveto
            1 callsubr
            20 15 12 22 35 33 -17 -42 55 vhcurveto
            95 114 rlineto
            61 -57 -60 15 -74 hhcurveto
            -136 -112 -94 -117 -61 46 -32 114 -38 hvcurveto
            43 -14 13 -13 -15 vvcurveto
            -18 -9 -12 -27 -47 -54 25 44 -53 vhcurveto
            -88 -114 rlineto
            -57 46 85 -31 87 hhcurveto
            return
          </CharString>
          <CharString index="9">
            rmoveto
            118 101 90 131 28 hvcurveto
            109 514 -40 callsubr
            -112 -529 rlineto
            -27 -6 -15 -16 -22 hhcurveto
            -16 -15 8 12 -7 hvcurveto
            -105 -129 rlineto
            -35 32 48 -19 53 hhcurveto
            return
          </CharString>
          <CharString index="10">
            -65 callsubr
            63 295 rlineto
            44 25 43 31 26 hhcurveto
            21 18 -15 -33 -8 -1 -8 -2 -10 hvcurveto
            -63 -296 rlineto
            -65 callsubr
            73 346 rlineto
            4 21 4 25 25 vvcurveto
            60 -23 59 -97 -86 -72 -31 -57 -47 vhcurveto
            return
          </CharString>
          <CharString index="11">
            -34 -234 rmoveto
            138 90 54 154 95 hvcurveto
            80 129 132 213 38 81 36 129 rlinecurve
            -182 hlineto
            -23 -121 -41 -109 -48 -79 -34 -56 rcurveline
            -12 365 rlineto
            -193 hlineto
            69 -537 -29 -34 rlineto
            -39 -33 -29 -9 -76 hhcurveto
            return
          </CharString>
          <CharString index="12">
            rmoveto
            100 14 -7 142 rlineto
            -137 hlineto
            -142 -156 rmoveto
            100 14 -6 142 rlineto
            5 callgsubr
            endchar
          </CharString>
          <CharString index="13">
            232 -10 -105 callsubr
            return
          </CharString>
          <CharString index="14">
            rmoveto
            136 hlineto
            133 115 -87 42 -94 -63 -67 63 -105 -42 rlineto
            return
          </CharString>
          <CharString index="15">
            150 vlineto
            -10 -26 -27 -7 -16 hhcurveto
            -19 -11 8 21 5 1 6 1 7 hvcurveto
            37 174 rlineto
            97 hlineto
            30 143 rlineto
            -96 hlineto
            35 165 -81 callgsubr
            -35 -165 -65 callgsubr
            -51 -241 -17 callsubr
            return
          </CharString>
          <CharString index="16">
            -4 callgsubr
            74 349 180 -349 rlineto
            154 hlineto
            151 710 rlineto
            -195 hlineto
            -76 -361 -180 361 56 callsubr
            return
          </CharString>
          <CharString index="17">
            rmoveto
            hintmask 11001000
            -71 callgsubr
            hintmask 11100000
            -48 callgsubr
            hintmask 11001000
            -43 -12 51 -63 hhcurveto
            hintmask 11100000
            -71 callsubr
            hintmask 11010000
            2 10 46 43 vhcurveto
            hintmask 11100000
            -51 callgsubr
          </CharString>
          <CharString index="18">
            68 10 47 40 55 vvcurveto
            60 -62 45 -92 -66 -75 -19 -37 -42 vhcurveto
            49 -89 rlineto
            26 33 32 18 49 hhcurveto
            19 36 -4 -19 -32 -59 -11 -77 hvcurveto
            -23 hlineto
            -21 -99 rlineto
            24 hlineto
            return
          </CharString>
          <CharString index="19">
            -106 callgsubr
            endchar
          </CharString>
          <CharString index="20">
            116 148 60 105 62 hvcurveto
            -139 95 rlineto
            -64 -34 -64 -23 -48 hhcurveto
            -76 -37 66 78 99 67 131 123 38 callgsubr
            hvcurveto
            171 106 rlineto
            93 -27 -89 62 -130 hhcurveto
            -247 -183 -219 -197 -156 99 -148 172 hvcurveto
            return
          </CharString>
          <CharString index="21">
            147 hmoveto
            194 hlineto
            50 235 332 475 rlineto
            -212 hlineto
            -181 -307 -47 307 rlineto
            -211 hlineto
            126 -473 rlineto
            return
          </CharString>
          <CharString index="22">
            -65 callsubr
            63 295 rlineto
            46 26 46 29 20 hhcurveto
            24 17 -14 -33 -8 -1 -9 -2 -10 hvcurveto
            -63 -296 rlineto
            -65 callsubr
            73 346 rlineto
            5 23 4 26 25 vvcurveto
            60 -25 56 -100 -70 -65 -31 -57 -47 vhcurveto
            return
          </CharString>
          <CharString index="23">
            28 130 rlineto
            -228 hlineto
            279 284 24 112 rlineto
            -402 hlineto
            -28 -130 rlineto
            204 hlineto
            -279 -284 rlineto
            return
          </CharString>
          <CharString index="24">
            160 226 160 return
          </CharString>
          <CharString index="25">
            -49 callsubr
            -97 callgsubr
            return
          </CharString>
          <CharString index="26">
            43 19 35 31 46 vvcurveto
            64 -74 45 -73 -87 -110 -59 -80 -33 19 -21 24 -12 vhcurveto
            return
          </CharString>
          <CharString index="27">
            rmoveto
            249 61 144 216 46 hvcurveto
            77 361 rlineto
            -195 hlineto
            -77 -361 rlineto
            -135 -29 -21 -52 -74 hhcurveto
            -54 -41 24 6 -5 hvcurveto
            -74 -159 rlineto
            -29 34 45 -15 58 hhcurveto
            endchar
          </CharString>
          <CharString index="28">
            535 -89 callgsubr
            -290 hlineto
            368 395 31 145 rlineto
            -514 -39 callgsubr
            288 hlineto
            -387 -395 rlineto
            return
          </CharString>
          <CharString index="29">
            192 hmoveto
            -100 callsubr
            return
          </CharString>
          <CharString index="30">
            64 12 31 17 32 hhcurveto
            30 15 -15 -34 hvcurveto
            return
          </CharString>
          <CharString index="31">
            rlineto
            67 hlineto
            72 39 -54 -81 -125 -78 -110 -112 hvcurveto
            return
          </CharString>
          <CharString index="32">
            rmoveto
            hintmask 11001100
            -71 callgsubr
            hintmask 11100100
            -48 callgsubr
            hintmask 11001100
            -43 -12 51 -63 hhcurveto
            hintmask 11100100
            -71 callsubr
            hintmask 11010100
            2 10 46 43 vhcurveto
            hintmask 11100100
            -51 callgsubr
          </CharString>
          <CharString index="33">
            rmoveto
            70 -58 52 -96 -29 -42 -5 -14 -24 vhcurveto
            42 11 42 24 57 hhcurveto
            38 34 -11 -21 18 hvcurveto
            78 77 rlineto
            39 -31 -51 20 -59 hhcurveto
            -153 -105 -122 -168 -101 53 -59 94 119 104 81 96 hvcurveto
            -200 -77 rmoveto
            return
          </CharString>
          <CharString index="34">
            80 -540 rmoveto
            -68 callsubr
            return
          </CharString>
          <CharString index="35">
            -62 0 170 112 158 100 170 return
          </CharString>
          <CharString index="36">
            -97 -65 -123 -35 -7 hvcurveto
            101 hlineto
            return
          </CharString>
          <CharString index="37">
            59 0 170 117 140 113 170 hstem
            488 201 vstem
            28 287 rmoveto
            33 hlineto
            -61 -287 rlineto
            -86 callgsubr
            -60 -283 rlineto
            -34 hlineto
            174 -257 rmoveto
            25 117 rlineto
            104 hlineto
            30 -15 callsubr
            -104 hlineto
            24 113 -76 callsubr
            endchar
          </CharString>
          <CharString index="38">
            rmoveto
            186 145 107 164 35 hvcurveto
            102 478 rlineto
            -165 hlineto
            -17 -78 rlineto
            return
          </CharString>
          <CharString index="39">
            79 370 -76 callsubr
            return
          </CharString>
          <CharString index="40">
            -16 hmoveto
            -57 callsubr
            return
          </CharString>
          <CharString index="41">
            112 526 -81 callgsubr
            return
          </CharString>
          <CharString index="42">
            190 hlineto
            return
          </CharString>
          <CharString index="43">
            160 hlineto
            81 378 rlineto
            -284 hlineto
            -29 -140 rlineto
            116 hlineto
            return
          </CharString>
          <CharString index="44">
            29 18 -7 -18 -27 -28 -9 -32 -35 -36 11 9 -11 hvcurveto
            return
          </CharString>
          <CharString index="45">
            -61 hlineto
            -31 -26 callgsubr
            return
          </CharString>
          <CharString index="46">
            -98 callgsubr
            endchar
          </CharString>
          <CharString index="47">
            -6 173 374 173 return
          </CharString>
          <CharString index="48">
            hintmask 11101010
            -81 callsubr
            hintmask 11110100
            -54 -26 -44 -29 -64 vvcurveto
            -71 68 -51 91 return
          </CharString>
          <CharString index="49">
            56 100 rlineto
            -42 -19 13 19 24 32 29 53 30 hvcurveto
            return
          </CharString>
          <CharString index="50">
            -65 callsubr
            -66 callsubr
            return
          </CharString>
          <CharString index="51">
            rmoveto
            -65 callsubr
            -38 callsubr
            -81 callgsubr
            endchar
          </CharString>
          <CharString index="52">
            19 -11 callsubr
            vhcurveto
            -104 callsubr
            return
          </CharString>
          <CharString index="53">
            1 -4 -4 0 -14 hhcurveto
            -59 -64 -40 -70 -51 hvcurveto
            return
          </CharString>
          <CharString index="54">
            hvcurveto
            24 77 rlineto
            202 hlineto
            37 173 rlineto
            -339 hlineto
            -61 -147 -53 -148 -60 -147 rrcurveto
            162 hlineto
            21 14 24 14 24 hhcurveto
            29 16 -22 -32 -54 -34 -39 -52 -40 -42 25 41 -27 hvcurveto
            -129 -120 rlineto
            -71 28 75 -41 99 hhcurveto
            endchar
          </CharString>
          <CharString index="55">
            188 hlineto
            51 243 rlineto
            70 29 53 56 44 hhcurveto
            25 18 -19 -26 -51 -61 -41 -96 -17 hvcurveto
            74 -215 rlineto
            200 hlineto
            -77 189 rlineto
            82 50 48 79 89 vvcurveto
            79 -42 45 -73 -75 -66 -46 -87 -50 vhcurveto
            71 332 rlineto
            -188 hlineto
            endchar
          </CharString>
          <CharString index="56">
            rmoveto
            122 hlineto
            342 440 rlineto
            -386 hlineto
            -23 -109 rlineto
            return
          </CharString>
          <CharString index="57">
            114 -59 107 104 109 -89 113 return
          </CharString>
          <CharString index="58">
            hstem
            28 200 306 199 vstem
            return
          </CharString>
          <CharString index="59">
            hvcurveto
            hintmask 11100000
            20 -48 -44 10 -39 hhcurveto
            -115 -91 -86 -132 -29 hvcurveto
            -5 -23 -65 callgsubr
            221 143 rmoveto
            6 30 rlineto
            34 7 17 17 26 hhcurveto
            14 17 -4 -5 16 hvcurveto
            -4 -24 -5 -24 -5 -24 rrcurveto
            endchar
          </CharString>
          <CharString index="60">
            2 10 hvcurveto
            64 303 rlineto
            return
          </CharString>
          <CharString index="61">
            104 117 41 107 46 -28 40 -53 8 hvcurveto
            return
          </CharString>
          <CharString index="62">
            -36 -13 callgsubr
            return
          </CharString>
          <CharString index="63">
            -17 35 41 -9 46 hhcurveto
            230 200 209 213 59 -15 58 -27 49 hvcurveto
            116 128 rlineto
            -466 -543 rmoveto
            -9 -8 1 1 -8 hvcurveto
            218 240 rlineto
            -6 vlineto
            -103 -65 -133 -128 vhcurveto
            -113 140 rmoveto
            return
          </CharString>
          <CharString index="64">
            rmoveto
            hintmask 11001110
            -71 callgsubr
            hintmask 11100110
            -48 callgsubr
            hintmask 11001110
            -43 -12 51 -63 hhcurveto
            hintmask 11100110
            -71 callsubr
            hintmask 11010110
            2 10 46 43 vhcurveto
            hintmask 11100110
            -51 callgsubr
          </CharString>
          <CharString index="65">
            rlineto
            107 hlineto
            31 143 rlineto
            -108 hlineto
            14 64 rlineto
            34 7 17 17 27 hhcurveto
            18 27 -6 -8 19 hvcurveto
            62 144 rlineto
            20 -48 -44 10 -43 hhcurveto
            -112 -93 -86 -132 -28 hvcurveto
            -12 -57 -65 callgsubr
            return
          </CharString>
          <CharString index="66">
            -20 hstem
            -3 hmoveto
            -4 callgsubr
            151 710 rlineto
            -195 hlineto
            return
          </CharString>
          <CharString index="67">
            rlineto
            -191 hlineto
            return
          </CharString>
          <CharString index="68">
            21 -33 callgsubr
            return
          </CharString>
          <CharString index="69">
            34 160 return
          </CharString>
          <CharString index="70">
            rmoveto
            -58 callsubr
            return
          </CharString>
          <CharString index="71">
            -20 hstem
            -70 -35 callsubr
            return
          </CharString>
          <CharString index="72">
            -209 -98 callsubr
            return
          </CharString>
          <CharString index="73">
            -21 710 -20 return
          </CharString>
          <CharString index="74">
            37 callgsubr
            190 -89 callgsubr
            -576 -39 callgsubr
            191 hlineto
            endchar
          </CharString>
          <CharString index="75">
            224 70 rmoveto
            -16 -14 5 10 -10 hvcurveto
            149 142 rlineto
            1 -4 0 -5 -4 vvcurveto
            -83 -51 -61 -59 vhcurveto
            -61 82 rmoveto
            83 50 61 59 13 12 -4 -8 10 vhcurveto
            -144 -137 rlineto
            return
          </CharString>
          <CharString index="76">
            -39 callsubr
            224 -20 hstem
            return
          </CharString>
          <CharString index="77">
            rmoveto
            110 106 69 88 38 -22 27 -32 19 hvcurveto
            return
          </CharString>
          <CharString index="78">
            -320 -66 callgsubr
            return
          </CharString>
          <CharString index="79">
            7 198 166 186 return
          </CharString>
          <CharString index="80">
            hlineto
            -15 callgsubr
            return
          </CharString>
          <CharString index="81">
            hintmask 11101010
            45 26 45 64 65 vvcurveto
            115 -105 61 -94 -116 -169 -87 -149 -37 13 -40 23 -18 vhcurveto
            hintmask 11110100
            -48 -34 -67 -61 -98 vvcurveto
            -120 94 -76 118 return
          </CharString>
          <CharString index="82">
            -4 callgsubr
            44 205 56 56 104 -261 rlineto
            225 hlineto
            -177 392 311 318 rlineto
            -221 hlineto
            -248 -270 57 270 rlineto
            -195 hlineto
            endchar
          </CharString>
          <CharString index="83">
            -68 -126 -35 -165 rlineto
            198 hlineto
            -38 callsubr
            rlineto
            -52 hlineto
            53 131 rlineto
            return
          </CharString>
          <CharString index="84">
            -3 hmoveto
            494 -89 callgsubr
            -299 hlineto
            37 callgsubr
            -195 hlineto
            return
          </CharString>
          <CharString index="85">
            -6 -9 callgsubr
            return
          </CharString>
          <CharString index="86">
            rlineto
            -5 callsubr
            return
          </CharString>
          <CharString index="87">
            -36 -19 callsubr
            return
          </CharString>
          <CharString index="88">
            21 -16 callsubr
            return
          </CharString>
          <CharString index="89">
            -1 callsubr
            -7 -1 -7 -6 vvcurveto
            -53 41 -19 57 return
          </CharString>
          <CharString index="90">
            rlineto
            -4 -17 -1 -15 -14 vvcurveto
            return
          </CharString>
          <CharString index="91">
            -21 370 166 return
          </CharString>
          <CharString index="92">
            140 rlineto
            return
          </CharString>
          <CharString index="93">
            -23 -26 -31 -45 -25 -49 -41 -31 19 26 31 46 29 48 hvcurveto
            endchar
          </CharString>
          <CharString index="94">
            51 -21 466 -20 hstem
            11 210 rmoveto
            227 -180 32 152 -100 77 135 85 32 152 -307 -198 rlineto
            return
          </CharString>
          <CharString index="95">
            170 370 170 return
          </CharString>
          <CharString index="96">
            27 3 7 35 return
          </CharString>
          <CharString index="97">
            vvcurveto
            43 26 27 38 40 49 -30 -39 24 vhcurveto
            120 117 rlineto
            66 -41 -74 39 -85 hhcurveto
            -136 -126 -96 -124 return
          </CharString>
          <CharString index="98">
            81 -81 162 hstemhm
            return
          </CharString>
          <CharString index="99">
            -46 -10 173 138 141 101 167 hstemhm
            17 198 -119 193 56 193 -155 197 hintmask 11110100
            return
          </CharString>
          <CharString index="100">
            -27 35 48 -15 61 hhcurveto
            211 130 164 163 50 -13 46 -26 37 hvcurveto
            90 82 rlineto
            -101 hlineto
            -37 -34 rlineto
            return
          </CharString>
          <CharString index="101">
            -213 167 return
          </CharString>
          <CharString index="102">
            170 hlineto
            return
          </CharString>
          <CharString index="103">
            -65 callsubr
            68 322 rlineto
            return
          </CharString>
          <CharString index="104">
            72 146 40 189 rlineto
            -198 -27 callsubr
            return
          </CharString>
          <CharString index="105">
            190 -107 107 250 -20 hstemhm
            hintmask 10100000
            return
          </CharString>
          <CharString index="106">
            rmoveto
            65 67 28 64 48 hvcurveto
            -1 return
          </CharString>
          <CharString index="107">
            -41 -10 -83 callsubr
            return
          </CharString>
          <CharString index="108">
            -47 14 -15 10 17 vvcurveto
            return
          </CharString>
          <CharString index="109">
            -66 callgsubr
            hstem
            return
          </CharString>
          <CharString index="110">
            65 -44 37 -116 35 return
          </CharString>
          <CharString index="111">
            rmoveto
            -57 callsubr
            endchar
          </CharString>
          <CharString index="112">
            66 17 23 58 vhcurveto
            150 vlineto
            -10 -26 -27 -7 -16 hhcurveto
            -19 -11 8 21 5 0 6 2 7 hvcurveto
            return
          </CharString>
          <CharString index="113">
            -28 191 170 hstem
            536 191 rmoveto
            36 170 rlineto
            -510 -39 callgsubr
            endchar
          </CharString>
          <CharString index="114">
            hvcurveto
            -1 -7 -1 return
          </CharString>
          <CharString index="115">
            170 198 return
          </CharString>
          <CharString index="116">
            194 -20 return
          </CharString>
          <CharString index="117">
            rmoveto
            86 157 40 184 -18 callgsubr
            -40 -184 rlineto
            57 hlineto
            -69 -157 rlineto
            endchar
          </CharString>
          <CharString index="118">
            319 193 rmoveto
            51 16 34 31 41 hhcurveto
            37 21 -26 -40 hvcurveto
            -9 -1 -1 -6 vvcurveto
            endchar
          </CharString>
          <CharString index="119">
            -66 callgsubr
            226 -20 hstem
            return
          </CharString>
          <CharString index="120">
            109 -85 119 return
          </CharString>
          <CharString index="121">
            rmoveto
            535 -89 callgsubr
            -290 hlineto
            368 395 31 145 rlineto
            -514 hlineto
            return
          </CharString>
          <CharString index="122">
            120 hlineto
            34 161 18 -119 rlineto
            96 hlineto
            68 119 -34 -161 rlineto
            120 hlineto
            return
          </CharString>
          <CharString index="123">
            -108 -100 -84 -100 -74 56 -58 85 hvcurveto
            19 90 rmoveto
            -18 -12 22 28 45 32 41 27 18 return
          </CharString>
          <CharString index="124">
            -44 -42 -57 hhcurveto
            -41 -36 19 35 -26 hvcurveto
            -131 -122 rlineto
            -63 49 66 -33 81 hhcurveto
            return
          </CharString>
          <CharString index="125">
            454 hmoveto
            -64 callsubr
            return
          </CharString>
          <CharString index="126">
            -46 -24 51 -65 hhcurveto
            -61 -38 -45 -44 -21 hvcurveto
            88 -44 rlineto
            12 6 11 11 23 hhcurveto
            return
          </CharString>
          <CharString index="127">
            107 vvcurveto
            179 -152 161 -204 -204 -152 -161 -179 -107 53 return
          </CharString>
          <CharString index="128">
            -33 59 hhcurveto
            38 51 14 20 32 hvcurveto
            -16 -15 callsubr
            -9 -24 -16 -4 -21 hhcurveto
            return
          </CharString>
          <CharString index="129">
            -80 107 rmoveto
            133 121 -26 -121 rlineto
            return
          </CharString>
          <CharString index="130">
            0 -12 callsubr
            return
          </CharString>
          <CharString index="131">
            106 rlineto
            208 -89 callgsubr
            -208 hlineto
            20 94 rlineto
            259 hlineto
            return
          </CharString>
          <CharString index="132">
            -6 109 -92 -21 196 89 return
          </CharString>
          <CharString index="133">
            176 376 173 return
          </CharString>
          <CharString index="134">
            194 41 callgsubr
            return
          </CharString>
          <CharString index="135">
            60 callgsubr
            208 -20 hstem
            441 201 vstem
            return
          </CharString>
          <CharString index="136">
            15 -14 -31 -8 -1 -10 -2 -11 hvcurveto
            -63 -296 rlineto
            -65 callsubr
            return
          </CharString>
          <CharString index="137">
            -19 -10 160 376 -20 224 -20 hstem
            9 204 vstem
            return
          </CharString>
          <CharString index="138">
            -139 -401 rmoveto
            129 186 -39 -186 rlineto
            endchar
          </CharString>
          <CharString index="139">
            -165 0 35 callsubr
            return
          </CharString>
          <CharString index="140">
            -192 -21 203 160 return
          </CharString>
          <CharString index="141">
            109 228 109 hstem
            return
          </CharString>
          <CharString index="142">
            130 266 130 return
          </CharString>
          <CharString index="143">
            hstemhm
            370 205 return
          </CharString>
          <CharString index="144">
            99 -65 40 -96 36 return
          </CharString>
          <CharString index="145">
            -213 65 61 55 return
          </CharString>
          <CharString index="146">
            335 49 callgsubr
            return
          </CharString>
          <CharString index="147">
            298 0 170 -31 170 -33 170 94 170 return
          </CharString>
          <CharString index="148">
            0 130 -130 170 226 130 14 170 return
          </CharString>
          <CharString index="149">
            -10 90 136 90 98 90 136 90 1 -20 hstemhm
            return
          </CharString>
          <CharString index="150">
            -41 -10 160 -135 -21 382 160 -4 -20 return
          </CharString>
          <CharString index="151">
            20 rmoveto
            127 327 133 -327 rlineto
            endchar
          </CharString>
          <CharString index="152">
            -41 -9 26 callsubr
            return
          </CharString>
          <CharString index="153">
            hlineto
            25 120 rlineto
            return
          </CharString>
          <CharString index="154">
            -209 163 return
          </CharString>
          <CharString index="155">
            104 vvcurveto
            83 62 85 103 103 62 -85 -83 -104 -49 return
          </CharString>
          <CharString index="156">
            -31 -19 24 31 47 34 36 46 32 18 -19 -34 return
          </CharString>
          <CharString index="157">
            hmoveto
            -68 callgsubr
            return
          </CharString>
          <CharString index="158">
            21 39 callgsubr
            return
          </CharString>
          <CharString index="159">
            143 115 160 return
          </CharString>
          <CharString index="160">
            -21 331 109 hstem
            return
          </CharString>
          <CharString index="161">
            -39 callsubr
            hstem
            return
          </CharString>
          <CharString index="162">
            rmoveto
            5 callgsubr
            return
          </CharString>
          <CharString index="163">
            rlineto
            -152 hlineto
            return
          </CharString>
          <CharString index="164">
            -15 161 -128 128 -128 143 return
          </CharString>
          <CharString index="165">
            45 28 -48 61 hhcurveto
            63 40 50 45 21 hvcurveto
            return
          </CharString>
          <CharString index="166">
            113 225 113 vstem
            return
          </CharString>
          <CharString index="167">
            52 callgsubr
            hstem
            return
          </CharString>
          <CharString index="168">
            rlineto
            -35 callgsubr
            return
          </CharString>
          <CharString index="169">
            164 79 149 175 159 hstem
            return
          </CharString>
          <CharString index="170">
            9 -134 rcurveline
            16 52 57 11 36 hhcurveto
            return
          </CharString>
          <CharString index="171">
            183 rlineto
            -151 hlineto
            -81 -183 rlineto
            return
          </CharString>
          <CharString index="172">
            rmoveto
            150 -404 -150 vlineto
            endchar
          </CharString>
          <CharString index="173">
            -173 56 rlineto
            return
          </CharString>
        <CharString name=".notdef">
          -637 endchar
        </CharString>
        <CharString name="A">
          -50 callgsubr
          hstem
          -102 callsubr
          endchar
        </CharString>
        <CharString name="A.sc">
          -57 21 -21 102 148 318 -20 hstem
          -67 hmoveto
          181 hlineto
          57 102 rlineto
          159 hlineto
          15 -102 rlineto
          179 hlineto
          -105 568 rlineto
          5 callgsubr
          -43 -318 rmoveto
          68 113 18 -113 rlineto
          endchar
        </CharString>
        <CharString name="AE">
          40 callsubr
          hstemhm
          hintmask 10110000
          -80 hmoveto
          206 hlineto
          hintmask 01010000
          95 139 rlineto
          187 hlineto
          hintmask 10110000
          -30 -139 rlineto
          462 -89 callgsubr
          -267 hlineto
          22 24 callsubr
          37 170 rlineto
          -505 hlineto
          hintmask 01010000
          31 callsubr
        </CharString>
        <CharString name="AEacute">
          40 callsubr
          206 -20 hstemhm
          hintmask 10111000
          773 916 -98 callgsubr
          -736 -762 rmoveto
          206 hlineto
          hintmask 01011000
          95 139 rlineto
          187 hlineto
          hintmask 10111000
          -30 -139 rlineto
          462 -89 callgsubr
          -267 hlineto
          22 24 callsubr
          37 170 rlineto
          -505 hlineto
          hintmask 01011000
          31 callsubr
        </CharString>
        <CharString name="Aacute">
          -50 callgsubr
          226 -20 hstem
          -102 callsubr
          207 647 -61 callsubr
        </CharString>
        <CharString name="Abreve">
          -50 callgsubr
          64 -9 callsubr
          279 100 hintmask 11110100
          -102 callsubr
          53 566 -34 callgsubr
          hintmask 11101100
          -94 callgsubr
          hintmask 11110100
          -55 callgsubr
        </CharString>
        <CharString name="Acircumflex">
          -50 callgsubr
          226 -20 hstem
          -102 callsubr
          -30 490 -69 callgsubr
        </CharString>
        <CharString name="Adblgrave">
          -50 callgsubr
          228 -20 hstem
          -102 callsubr
          106 493 -95 callsubr
        </CharString>
        <CharString name="Adieresis">
          -50 callgsubr
          77 140 hstem
          -102 callsubr
          13 498 -73 callgsubr
        </CharString>
        <CharString name="Agrave">
          -50 callgsubr
          227 -20 hstem
          -102 callsubr
          -14 492 -84 callgsubr
        </CharString>
        <CharString name="Ainvertedbreve">
          -50 callgsubr
          64 -8 callgsubr
          483 99 hintmask 11110100
          -102 callsubr
          -104 485 rmoveto
          97 hlineto
          hintmask 11101100
          -77 callsubr
          hintmask 11110100
          -95 callgsubr
        </CharString>
        <CharString name="Amacron">
          -50 callgsubr
          103 113 hstem
          -102 callsubr
          201 524 -72 callgsubr
          endchar
        </CharString>
        <CharString name="Aogonek">
          -1 -194 -21 236 -36 callgsubr
          hstem
          376 117 vstem
          498 -215 -37 callsubr
          -79 710 -20 callgsubr
          -381 -710 rlineto
          199 hlineto
          65 139 -21 callsubr
          7 -139 rlineto
          96 hlineto
          -71 -38 -38 -47 -41 -38 callgsubr
          -239 484 rmoveto
          103 220 8 -220 rlineto
          endchar
        </CharString>
        <CharString name="Aring">
          -50 callgsubr
          52 54 66 54 hstem
          310 79 77 78 vstem
          -102 callsubr
          -60 543 -88 callgsubr
          endchar
        </CharString>
        <CharString name="Aringacute">
          -1 21 -21 139 130 506 152 hstem
          295 79 77 78 vstem
          602 927 rmoveto
          -168 hlineto
          -60 -105 rlineto
          -49 -14 -30 -33 -50 vvcurveto
          -16 4 -13 8 -10 vhcurveto
          -368 -686 rlineto
          199 hlineto
          65 139 -21 callsubr
          7 -139 rlineto
          198 hlineto
          -77 690 rlineto
          18 17 10 23 29 vvcurveto
          21 -8 17 -14 11 vhcurveto
          -248 -539 rmoveto
          103 220 8 -220 rlineto
          49 506 rmoveto
          19 13 -11 -16 -22 -22 -17 -24 -19 -12 11 17 22 20 16 25 hvcurveto
          endchar
        </CharString>
        <CharString name="Atilde">
          -50 callgsubr
          68 -63 callgsubr
          hintmask 11110000
          -102 callsubr
          111 489 -43 callgsubr
        </CharString>
        <CharString name="B">
          30 0 164 119 152 109 166 hstemhm
          428 193 -160 160 -160 204 hintmask 11110000
          -3 hmoveto
          333 hlineto
          153 138 66 159 72 -35 48 -58 19 hvcurveto
          hintmask 11100100
          87 36 50 85 79 vvcurveto
          75 -41 71 -79 vhcurveto
          -397 hlineto
          79 -546 rmoveto
          25 119 rlineto
          144 hlineto
          hintmask 11110000
          20 12 -19 -26 -46 -31 -28 -32 hvcurveto
          -81 271 rmoveto
          24 109 rlineto
          123 hlineto
          hintmask 11101000
          17 13 -11 -27 -55 -33 -16 -26 hvcurveto
          endchar
        </CharString>
        <CharString name="B.sc">
          -45 0 143 78 133 69 145 hstemhm
          369 169 -146 146 -146 178 hintmask 11110000
          -9 hmoveto
          295 hlineto
          132 120 49 129 60 -32 37 -53 16 hvcurveto
          hintmask 11100100
          74 28 43 67 62 vvcurveto
          61 -37 59 -72 vhcurveto
          -349 hlineto
          79 -425 rmoveto
          17 78 rlineto
          130 hlineto
          hintmask 11110000
          19 12 -13 -19 -31 -25 -15 -28 hvcurveto
          -80 211 rmoveto
          15 69 rlineto
          111 hlineto
          hintmask 11101000
          16 14 -6 -20 -40 -24 -3 -25 hvcurveto
          endchar
        </CharString>
        <CharString name="C">
          46 callgsubr
          hstem
          28 199 vstem
          299 -6 rmoveto
          -56 callgsubr
        </CharString>
        <CharString name="C.sc">
          -67 -5 151 274 151 hstem
          15 174 vstem
          249 -5 rmoveto
          97 122 48 84 53 hvcurveto
          -121 84 rlineto
          -48 -26 -51 -17 -38 hhcurveto
          -64 -32 50 58 74 54 92 98 37 47 -14 -52 9 hvcurveto
          149 93 rlineto
          75 -22 -76 49 -109 hhcurveto
          -209 -152 -173 -157 -126 86 -120 148 hvcurveto
          endchar
        </CharString>
        <CharString name="CR">
          -637 endchar
        </CharString>
        <CharString name="Cacute">
          28 callgsubr
          648 916 -98 callgsubr
          -232 -768 rmoveto
          -56 callgsubr
        </CharString>
        <CharString name="Ccaron">
          46 callgsubr
          0 45 56 callgsubr
          28 199 hintmask 10111000
          395 759 -93 callsubr
          -12 -880 rmoveto
          116 148 60 105 62 hvcurveto
          -139 95 rlineto
          -64 -34 -64 -23 -48 hhcurveto
          -76 -37 66 78 hvcurveto
          hintmask 11011000
          99 67 131 123 38 callgsubr
          vhcurveto
          171 106 rlineto
          93 -27 -89 62 -130 hhcurveto
          -247 -183 -219 -197 -156 99 -148 172 hvcurveto
          endchar
        </CharString>
        <CharString name="Ccedilla">
          27 38 callsubr
          27 172 374 173 hstem
          28 199 111 86 vstem
          148 -192 rmoveto
          -77 callgsubr
          28 32 105 14 116 57 53 90 rlinecurve
          -139 95 rlineto
          -64 -34 -64 -23 -48 hhcurveto
          -76 -37 66 78 99 67 131 123 38 callgsubr
          hvcurveto
          171 106 rlineto
          93 -27 -89 62 -130 hhcurveto
          -247 -183 -219 -197 -149 90 -142 158 -12 hvcurveto
          -62 -91 -16 callgsubr
          -63 callsubr
          endchar
        </CharString>
        <CharString name="Ccircumflex">
          28 callgsubr
          386 759 -103 callgsubr
          -807 vmoveto
          -56 callgsubr
        </CharString>
        <CharString name="Cdotaccent">
          46 callgsubr
          52 150 hstem
          28 199 vstem
          299 -6 rmoveto
          -87 callsubr
          256 772 -100 callgsubr
        </CharString>
        <CharString name="D">
          56 23 callsubr
          hstem
          485 201 vstem
          -80 callgsubr
          endchar
        </CharString>
        <CharString name="D.sc">
          -12 0 148 272 148 hstem
          426 176 vstem
          -9 hmoveto
          235 hlineto
          215 161 142 198 128 -82 100 -173 hvcurveto
          -235 hlineto
          80 -420 rmoveto
          58 272 rlineto
          65 hlineto
          72 39 -42 -64 -91 -67 -75 -102 hvcurveto
          endchar
        </CharString>
        <CharString name="Dcaron">
          56 7 callgsubr
          485 201 hintmask 10111000
          334 759 -93 callsubr
          -253 -874 rmoveto
          -86 callgsubr
          80 -540 rmoveto
          hintmask 11011000
          -68 callsubr
          endchar
        </CharString>
        <CharString name="Dcroat">
          -70 callsubr
        </CharString>
        <CharString name="Ddotbelow">
          56 -27 callgsubr
          63 -12 callsubr
          hstem
          485 201 vstem
          -80 callgsubr
          18 -383 -100 callgsubr
        </CharString>
        <CharString name="Delta">
          40 60 callsubr
          397 710 rmoveto
          -158 hlineto
          -237 -560 rlineto
          -150 631 150 vlineto
          -442 44 callsubr
        </CharString>
        <CharString name="E">
          -72 callsubr
          hstem
          -3 hmoveto
          483 -89 callgsubr
          -288 hlineto
          24 112 rlineto
          238 hlineto
          34 158 rlineto
          -238 hlineto
          21 100 rlineto
          279 -89 callgsubr
          -474 hlineto
          endchar
        </CharString>
        <CharString name="E.sc">
          -114 0 148 72 138 62 148 hstem
          -9 hmoveto
          435 hlineto
          32 148 rlineto
          -266 hlineto
          16 72 rlineto
          220 hlineto
          29 138 rlineto
          -220 hlineto
          13 62 rlineto
          258 hlineto
          31 148 rlineto
          -427 hlineto
          endchar
        </CharString>
        <CharString name="Eacute">
          -72 callsubr
          206 -20 hstem
          548 916 -98 callgsubr
          -434 -762 rmoveto
          483 -89 callgsubr
          -288 hlineto
          24 112 rlineto
          238 hlineto
          34 158 rlineto
          -238 hlineto
          21 100 rlineto
          279 -89 callgsubr
          -474 hlineto
          endchar
        </CharString>
        <CharString name="Ebreve">
          -72 callsubr
          44 -9 callsubr
          256 100 hintmask 11110100
          -3 hmoveto
          483 -89 callgsubr
          -288 hlineto
          24 112 rlineto
          238 hlineto
          34 158 rlineto
          -238 hlineto
          21 100 rlineto
          279 -89 callgsubr
          -474 hlineto
          252 125 -34 callgsubr
          hintmask 11101100
          -94 callgsubr
          hintmask 11110100
          -55 callgsubr
        </CharString>
        <CharString name="Ecaron">
          -72 callsubr
          0 49 56 callgsubr
          hintmask 11011000
          318 759 -93 callsubr
          -237 -874 rmoveto
          483 -89 callgsubr
          -288 hlineto
          24 112 rlineto
          238 hlineto
          34 158 rlineto
          -238 hlineto
          hintmask 11101000
          21 100 rlineto
          279 -89 callgsubr
          -474 hlineto
          endchar
        </CharString>
        <CharString name="Ecircumflex">
          -72 callsubr
          206 -20 hstem
          303 759 -103 callgsubr
          -219 -801 rmoveto
          483 -89 callgsubr
          -288 hlineto
          24 112 rlineto
          238 hlineto
          34 158 rlineto
          -238 hlineto
          21 100 rlineto
          279 -89 callgsubr
          -474 hlineto
          endchar
        </CharString>
        <CharString name="Edblgrave">
          -72 callsubr
          208 -20 hstem
          -3 hmoveto
          483 -89 callgsubr
          -288 hlineto
          24 112 rlineto
          238 hlineto
          34 158 rlineto
          -238 hlineto
          21 100 rlineto
          279 -89 callgsubr
          -474 hlineto
          304 52 -95 callsubr
        </CharString>
        <CharString name="Edieresis">
          -72 callsubr
          57 140 hstem
          359 767 -101 callsubr
          -431 -767 rmoveto
          483 -89 callgsubr
          -288 hlineto
          24 112 rlineto
          238 hlineto
          34 158 rlineto
          -238 hlineto
          21 100 rlineto
          279 -89 callgsubr
          -474 hlineto
          endchar
        </CharString>
        <CharString name="Edotaccent">
          -72 callsubr
          56 150 hstem
          -3 hmoveto
          483 -89 callgsubr
          -288 hlineto
          24 112 rlineto
          238 hlineto
          34 158 rlineto
          -238 hlineto
          21 100 rlineto
          279 -89 callgsubr
          -474 hlineto
          329 56 -100 callgsubr
        </CharString>
        <CharString name="Edotbelow">
          -62 -27 callgsubr
          63 170 112 158 100 170 hstem
          -3 hmoveto
          483 -89 callgsubr
          -288 hlineto
          24 112 rlineto
          238 hlineto
          34 158 rlineto
          -238 hlineto
          21 100 rlineto
          279 -89 callgsubr
          -474 hlineto
          122 -923 -100 callgsubr
        </CharString>
        <CharString name="Egrave">
          -72 callsubr
          207 -20 hstem
          -3 hmoveto
          483 -89 callgsubr
          -288 hlineto
          24 112 rlineto
          238 hlineto
          34 158 rlineto
          -238 hlineto
          21 100 rlineto
          279 -89 callgsubr
          -474 hlineto
          198 51 -84 callgsubr
        </CharString>
        <CharString name="Einvertedbreve">
          -72 callsubr
          44 -8 callgsubr
          453 99 hintmask 11110100
          -3 hmoveto
          483 -89 callgsubr
          -288 hlineto
          24 112 rlineto
          238 hlineto
          34 158 rlineto
          -238 hlineto
          21 100 rlineto
          279 -89 callgsubr
          -474 hlineto
          88 44 rmoveto
          97 hlineto
          hintmask 11101100
          -77 callsubr
          hintmask 11110100
          -95 callgsubr
        </CharString>
        <CharString name="Emacron">
          -72 callsubr
          83 113 hstem
          -3 hmoveto
          483 -89 callgsubr
          -288 hlineto
          24 112 rlineto
          238 hlineto
          34 158 rlineto
          -238 hlineto
          21 100 rlineto
          279 -89 callgsubr
          -474 hlineto
          400 83 -72 callgsubr
          endchar
        </CharString>
        <CharString name="Eng">
          68 47 callsubr
          67 -21 709 -20 21 -20 hstemhm
          hintmask 11100000
          336 -209 rmoveto
          114 103 84 130 28 hvcurveto
          150 704 rlineto
          -195 hlineto
          -74 -350 rlineto
          hintmask 11010000
          -164 351 rlineto
          -150 1 callgsubr
          -4 callgsubr
          73 343 135 -299 -10 -47 rlineto
          -27 -6 -15 -16 -22 hhcurveto
          -17 -15 8 12 -7 hvcurveto
          -105 -129 rlineto
          -35 33 47 -19 53 hhcurveto
          endchar
        </CharString>
        <CharString name="Eogonek">
          -62 -193 -21 214 170 112 158 100 170 hstem
          87 126 vstem
          -3 hmoveto
          197 -31 callgsubr
          52 29 hvcurveto
          184 -89 callgsubr
          -288 hlineto
          24 112 rlineto
          238 hlineto
          34 158 rlineto
          -238 hlineto
          21 100 rlineto
          279 -89 callgsubr
          -474 hlineto
          endchar
        </CharString>
        <CharString name="Eth">
          -70 callsubr
        </CharString>
        <CharString name="Etilde">
          -72 callsubr
          48 -63 callgsubr
          hintmask 11110000
          -3 hmoveto
          483 -89 callgsubr
          -288 hlineto
          24 112 rlineto
          238 hlineto
          34 158 rlineto
          -238 hlineto
          21 100 rlineto
          279 -89 callgsubr
          -474 hlineto
          304 48 -43 callgsubr
        </CharString>
        <CharString name="Euro">
          131 -6 173 54 100 43 100 77 173 hstem
          107 464 rmoveto
          -61 -100 rlineto
          63 hlineto
          -3 -15 -2 -14 -1 -14 rrcurveto
          -24 hlineto
          -61 -100 rlineto
          92 hlineto
          -125 27 92 -102 144 hhcurveto
          116 148 60 105 62 hvcurveto
          -139 95 rlineto
          -64 -35 -63 -23 -48 hhcurveto
          -44 -30 21 33 -19 hvcurveto
          77 hlineto
          61 100 rlineto
          -158 hlineto
          14 2 14 4 15 vhcurveto
          148 hlineto
          61 100 rlineto
          -166 hlineto
          45 32 48 32 61 hhcurveto
          38 callgsubr
          hvcurveto
          171 106 rlineto
          93 -27 -89 62 -130 hhcurveto
          -178 -144 -114 -136 -67 hvcurveto
          endchar
        </CharString>
        <CharString name="F">
          -91 21 -21 264 158 118 170 hstem
          -3 hmoveto
          -4 callgsubr
          56 264 rlineto
          219 hlineto
          33 158 rlineto
          -218 hlineto
          25 118 rlineto
          269 -89 callgsubr
          -464 hlineto
          endchar
        </CharString>
        <CharString name="F.sc">
          -143 21 -21 204 138 78 148 hstem
          14 callgsubr
          43 204 rlineto
          204 hlineto
          29 138 rlineto
          -203 hlineto
          16 78 rlineto
          249 hlineto
          31 148 rlineto
          -418 hlineto
          endchar
        </CharString>
        <CharString name="G">
          74 -5 -47 callgsubr
          hstemhm
          28 201 hintmask 01111000
          18 callsubr
          hintmask 10111000
          -46 callgsubr
        </CharString>
        <CharString name="G.alt">
          46 -5 173 60 170 144 173 hstem
          29 198 vstem
          303 -5 rmoveto
          181 146 142 172 35 hvcurveto
          6 30 6 29 7 30 rrcurveto
          -309 -39 callgsubr
          98 hlineto
          -31 -24 -48 -29 -46 hhcurveto
          -70 -22 68 63 110 64 133 109 82 13 -79 -14 hvcurveto
          181 121 rlineto
          94 -30 -81 51 -116 hhcurveto
          -244 -176 -217 -203 -160 100 -140 174 hvcurveto
          endchar
        </CharString>
        <CharString name="G.sc">
          -36 -4 151 -126 -21 184 122 115 151 hstemhm
          16 174 hintmask 01111000
          363 hmoveto
          140 hlineto
          66 306 rlineto
          -251 hlineto
          -26 -122 rlineto
          89 hlineto
          hintmask 10111000
          -24 -33 -34 -13 -32 hhcurveto
          -58 -34 40 63 98 68 73 78 43 39 -29 -41 10 hvcurveto
          147 97 rlineto
          77 -22 -78 47 -101 hhcurveto
          -186 -172 -149 -185 -133 91 -109 128 48 43 13 32 46 hvcurveto
          endchar
        </CharString>
        <CharString name="Gacute">
          74 -5 -47 callgsubr
          201 -20 hstemhm
          28 201 hintmask 01111100
          18 callsubr
          hintmask 10111100
          -93 callgsubr
          hintmask 01111100
          179 856 -61 callsubr
        </CharString>
        <CharString name="Gbreve">
          74 -5 -47 callgsubr
          39 -9 callsubr
          28 201 107 100 hintmask 01111011
          18 callsubr
          hintmask 10111011
          -93 callgsubr
          hintmask 01111011
          14 775 -34 callgsubr
          hintmask 10110111
          -94 callgsubr
          hintmask 10111011
          -55 callgsubr
        </CharString>
        <CharString name="Gcircumflex">
          74 -5 -47 callgsubr
          201 -20 hstemhm
          28 201 hintmask 01111100
          391 759 -103 callgsubr
          150 -801 rmoveto
          -64 callsubr
          hintmask 10111100
          -46 callgsubr
        </CharString>
        <CharString name="Gcommaaccent">
          74 -6 callsubr
          41 -47 callgsubr
          hstemhm
          28 201 hintmask 10111100
          287 -91 callgsubr
          249 213 rmoveto
          -64 callsubr
          hintmask 11011100
          -46 callgsubr
        </CharString>
        <CharString name="Gdotaccent">
          74 -5 -47 callgsubr
          51 150 hstemhm
          28 201 hintmask 01111100
          18 callsubr
          hintmask 10111100
          -93 callgsubr
          hintmask 01111100
          91 706 -100 callgsubr
        </CharString>
        <CharString name="H">
          87 21 -37 callgsubr
          endchar
        </CharString>
        <CharString name="H.sc">
          15 21 -21 216 149 203 -20 hstem
          14 callgsubr
          46 216 rlineto
          201 hlineto
          -46 -216 -21 callsubr
          121 568 61 callsubr
          -44 -203 rlineto
          -201 hlineto
          44 203 61 callsubr
          endchar
        </CharString>
        <CharString name="Hbar">
          92 21 -21 278 170 90 88 -88 172 hstemhm
          hintmask 11100000
          67 538 rmoveto
          47 hlineto
          -114 -538 rlineto
          -4 callgsubr
          59 278 rlineto
          212 hlineto
          -59 -278 rlineto
          -4 callgsubr
          114 538 rlineto
          48 hlineto
          18 88 rlineto
          -47 hlineto
          hintmask 11010000
          18 84 rlineto
          -195 hlineto
          hintmask 11100000
          -18 -84 rlineto
          -212 hlineto
          hintmask 11010000
          18 84 rlineto
          -195 hlineto
          hintmask 11100000
          -18 -84 rlineto
          -47 hlineto
          204 -178 rmoveto
          19 90 rlineto
          212 hlineto
          -19 -90 rlineto
          endchar
        </CharString>
        <CharString name="Hcircumflex">
          87 21 -21 278 170 262 -20 226 -20 hstem
          380 759 -103 callgsubr
          -296 -801 rmoveto
          -4 callgsubr
          59 278 rlineto
          212 hlineto
          -59 -278 rlineto
          -4 callgsubr
          151 710 rlineto
          -195 hlineto
          -56 -262 rlineto
          -212 hlineto
          56 262 rlineto
          -195 hlineto
          endchar
        </CharString>
        <CharString name="Hdotbelow">
          87 -27 callgsubr
          84 -37 callgsubr
          186 -923 -100 callgsubr
        </CharString>
        <CharString name="I">
          -320 21 -21 710 -41 callsubr
          endchar
        </CharString>
        <CharString name="I.sc">
          -356 -11 callgsubr
          14 callgsubr
          121 568 61 callsubr
          endchar
        </CharString>
        <CharString name="IJ">
          168 -11 173 -141 -34 callsubr
          hstemhm
          hintmask 01100000
          -3 hmoveto
          -4 callgsubr
          151 710 rlineto
          -195 hlineto
          hintmask 10100000
          258 -721 -80 callsubr
        </CharString>
        <CharString name="Iacute">
          -320 21 -21 710 -20 226 -41 callsubr
          260 206 -61 callsubr
        </CharString>
        <CharString name="Ibreve">
          -29 callsubr
          64 -9 callsubr
          128 100 hintmask 11101000
          -3 hmoveto
          -4 callgsubr
          151 710 rlineto
          -195 hlineto
          124 125 -34 callgsubr
          hintmask 11011000
          -94 callgsubr
          hintmask 11101000
          -55 callgsubr
        </CharString>
        <CharString name="Icircumflex">
          -320 21 -21 710 -20 226 -41 callsubr
          31 49 -69 callgsubr
        </CharString>
        <CharString name="Idblgrave">
          -29 callsubr
          228 -41 callsubr
          173 52 -95 callsubr
        </CharString>
        <CharString name="Idieresis">
          -29 callsubr
          77 140 hstem
          -3 hmoveto
          -4 callgsubr
          151 710 rlineto
          -195 hlineto
          76 57 -73 callgsubr
        </CharString>
        <CharString name="Idotaccent">
          -29 callsubr
          76 150 hstem
          -3 hmoveto
          -4 callgsubr
          151 710 rlineto
          -195 hlineto
          197 56 -100 callgsubr
        </CharString>
        <CharString name="Idotbelow">
          -320 -27 callgsubr
          84 -21 710 -41 callsubr
          -10 -923 -100 callgsubr
        </CharString>
        <CharString name="Igrave">
          -29 callsubr
          227 -41 callsubr
          60 51 -84 callgsubr
        </CharString>
        <CharString name="Iinvertedbreve">
          -29 callsubr
          64 -8 callgsubr
          316 99 hintmask 11101000
          -3 hmoveto
          -4 callgsubr
          151 710 rlineto
          -195 hlineto
          -49 44 rmoveto
          97 hlineto
          hintmask 11011000
          -77 callsubr
          hintmask 11101000
          -95 callgsubr
        </CharString>
        <CharString name="Imacron">
          -29 callsubr
          103 113 hstem
          -3 hmoveto
          -4 callgsubr
          151 710 rlineto
          -195 hlineto
          264 83 -72 callgsubr
          endchar
        </CharString>
        <CharString name="Iogonek">
          -320 -193 -21 235 -34 callsubr
          hstem
          -19 126 vstem
          -3 hmoveto
          91 -31 callgsubr
          54 30 hvcurveto
          151 709 rlineto
          -195 hlineto
          endchar
        </CharString>
        <CharString name="Itilde">
          -29 callsubr
          68 -63 callgsubr
          hintmask 11100000
          -3 hmoveto
          -4 callgsubr
          151 710 rlineto
          -195 hlineto
          178 48 -90 callsubr
        </CharString>
        <CharString name="J">
          -149 -11 173 548 -20 hstem
          89 -11 -80 callsubr
        </CharString>
        <CharString name="J.sc">
          -196 -9 151 426 -20 hstem
          77 -9 rmoveto
          223 51 115 173 37 hvcurveto
          61 289 61 callsubr
          -61 -289 rlineto
          -101 -21 -18 -36 -70 hhcurveto
          -49 -36 14 9 -7 hvcurveto
          -65 -139 rlineto
          -23 31 42 -12 52 hhcurveto
          endchar
        </CharString>
        <CharString name="Jcircumflex">
          -149 -11 173 548 -20 226 -20 hstem
          353 759 -103 callgsubr
          -177 -812 -80 callsubr
        </CharString>
        <CharString name="K">
          28 2 callsubr
          -3 hmoveto
          -25 callsubr
        </CharString>
        <CharString name="K.sc">
          -34 -11 callgsubr
          14 callgsubr
          36 168 63 50 113 -218 rlineto
          178 hlineto
          -170 313 275 255 rlineto
          -175 hlineto
          -246 -218 47 218 61 callsubr
          endchar
        </CharString>
        <CharString name="Kcommaaccent">
          28 -6 callsubr
          67 -34 callsubr
          hstem
          285 -91 callgsubr
          -206 213 rmoveto
          -25 callsubr
        </CharString>
        <CharString name="L">
          -73 60 callsubr
          -23 callsubr
          endchar
        </CharString>
        <CharString name="L.sc">
          -176 0 148 420 -20 hstem
          -9 hmoveto
          399 hlineto
          32 148 rlineto
          -230 hlineto
          90 420 61 callsubr
          endchar
        </CharString>
        <CharString name="Lacute">
          -73 52 callgsubr
          226 -20 hstem
          412 916 -98 callgsubr
          -298 -762 rmoveto
          494 -89 callgsubr
          -299 hlineto
          37 callgsubr
          -195 hlineto
          endchar
        </CharString>
        <CharString name="Lcaron">
          -72 0 170 560 -20 hstem
          487 -40 callgsubr
          -377 -588 rmoveto
          494 -89 callgsubr
          -299 hlineto
          37 callgsubr
          -195 hlineto
          endchar
        </CharString>
        <CharString name="Lcommaaccent">
          -73 -6 callsubr
          46 170 540 -20 hstem
          229 -91 callgsubr
          -150 213 rmoveto
          494 -89 callgsubr
          -299 hlineto
          37 callgsubr
          -195 hlineto
          endchar
        </CharString>
        <CharString name="Ldot">
          -72 0 170 166 184 190 -20 hstem
          -23 callsubr
          353 -374 49 callgsubr
          endchar
        </CharString>
        <CharString name="Lslash">
          -64 60 callsubr
          17 252 rmoveto
          48 22 -58 -274 rlineto
          494 -89 callgsubr
          -299 hlineto
          43 203 115 53 -21 101 -68 -31 46 214 rlineto
          -195 hlineto
          -67 -313 -95 -44 rlineto
          endchar
        </CharString>
        <CharString name="M">
          183 2 callsubr
          -3 hmoveto
          -4 callgsubr
          80 374 46 -263 rlineto
          103 hlineto
          158 263 -79 -374 rlineto
          -4 callgsubr
          151 710 rlineto
          -212 hlineto
          -208 -334 -65 334 rlineto
          -213 hlineto
          endchar
        </CharString>
        <CharString name="M.sc">
          103 -11 callgsubr
          14 callgsubr
          58 275 60 -189 rlineto
          90 hlineto
          140 189 -59 -275 -21 callsubr
          121 568 rlineto
          -185 hlineto
          -182 -250 -76 250 rlineto
          -186 hlineto
          endchar
        </CharString>
        <CharString name="N">
          88 2 callsubr
          -3 hmoveto
          -91 callsubr
          endchar
        </CharString>
        <CharString name="N.sc">
          18 -11 callgsubr
          14 callgsubr
          54 253 185 -253 rlineto
          135 hlineto
          121 568 61 callsubr
          -56 -262 -185 262 rlineto
          -133 hlineto
          endchar
        </CharString>
        <CharString name="NULL">
          -637 endchar
        </CharString>
        <CharString name="Nacute">
          88 12 callsubr
          615 916 -98 callgsubr
          -501 -762 rmoveto
          -91 callsubr
          endchar
        </CharString>
        <CharString name="Ncaron">
          88 12 callsubr
          374 759 -93 callsubr
          -293 -874 rmoveto
          -91 callsubr
          endchar
        </CharString>
        <CharString name="Ncommaaccent">
          88 -6 callsubr
          67 -34 callsubr
          hstem
          289 -91 callgsubr
          -210 213 rmoveto
          -91 callsubr
          endchar
        </CharString>
        <CharString name="Ndotaccent">
          88 -66 callgsubr
          76 150 hstem
          537 766 rmoveto
          32 150 61 callsubr
          -32 -150 rlineto
          -370 -766 rmoveto
          -91 callsubr
          endchar
        </CharString>
        <CharString name="Ntilde">
          88 -66 callgsubr
          68 -63 callgsubr
          hintmask 11100000
          -3 hmoveto
          -91 callsubr
          375 48 -90 callsubr
        </CharString>
        <CharString name="O">
          -45 callgsubr
          -82 callsubr
          endchar
        </CharString>
        <CharString name="O.sc">
          -3 -5 151 274 151 hstem
          15 175 248 174 vstem
          251 -5 rmoveto
          194 167 166 168 125 -83 117 -152 -192 -170 -163 -171 -126 86 -116 150 hvcurveto
          34 151 rmoveto
          -67 -28 51 56 76 53 91 100 66 29 -49 -56 -75 -53 -94 -100 hvcurveto
          endchar
        </CharString>
        <CharString name="OE">
          340 0 170 -154 -21 281 170 94 170 5 -20 hstemhm
          28 199 hintmask 01110100
          282 -5 rmoveto
          49 49 18 28 49 hvcurveto
          hintmask 10110100
          -9 -41 rlineto
          463 -89 callgsubr
          -268 hlineto
          23 24 callsubr
          36 170 rlineto
          -454 hlineto
          -8 -40 rlineto
          hintmask 01101100
          28 -36 -40 17 -47 hhcurveto
          -217 -195 -210 -217 -153 91 -140 163 hvcurveto
          39 173 rmoveto
          -67 -27 62 71 104 62 137 111 66 28 -62 -71 -103 -60 -138 -113 hvcurveto
          endchar
        </CharString>
        <CharString name="Oacute">
          101 50 callgsubr
          200 306 199 vstem
          636 916 -98 callgsubr
          -216 -768 -105 callgsubr
          endchar
        </CharString>
        <CharString name="Obreve">
          -45 callgsubr
          40 -9 callsubr
          28 200 112 100 94 199 hintmask 11101110
          -97 callgsubr
          143 668 -34 callgsubr
          hintmask 11011110
          -94 callgsubr
          hintmask 11101110
          -55 callgsubr
        </CharString>
        <CharString name="Ocircumflex">
          101 50 callgsubr
          200 306 199 vstem
          387 759 -103 callgsubr
          3 -807 -105 callgsubr
          endchar
        </CharString>
        <CharString name="Odblgrave">
          -45 callgsubr
          204 -20 -82 callsubr
          214 595 -95 callsubr
        </CharString>
        <CharString name="Odieresis">
          -45 callgsubr
          53 140 -49 callsubr
          434 767 -101 callsubr
          -200 -773 -105 callgsubr
          endchar
        </CharString>
        <CharString name="Odotbelow">
          101 -27 callgsubr
          57 173 374 173 -82 callsubr
          4 -380 -100 callgsubr
        </CharString>
        <CharString name="Ograve">
          -45 callgsubr
          203 -20 -82 callsubr
          72 594 -84 callgsubr
        </CharString>
        <CharString name="Ohungarumlaut">
          -45 callgsubr
          178 27 callgsubr
          500 892 -67 callgsubr
          -276 -747 -105 callgsubr
          endchar
        </CharString>
        <CharString name="Oinvertedbreve">
          -45 callgsubr
          40 -8 callgsubr
          28 200 306 96 -96 199 hintmask 11101010
          -97 callgsubr
          -27 587 rmoveto
          97 hlineto
          hintmask 11011100
          -77 callsubr
          hintmask 11101100
          -95 callgsubr
        </CharString>
        <CharString name="Omacron">
          -45 callgsubr
          79 113 -49 callsubr
          622 793 -72 callgsubr
          -23 -799 -105 callgsubr
          endchar
        </CharString>
        <CharString name="Omega">
          195 0 130 413 31 callgsubr
          130 hlineto
          -79 34 -49 107 48 callsubr
          -107 -79 -34 vhcurveto
          -130 329 130 -149 vlineto
          86 50 53 88 20 callsubr
          -88 86 -50 vhcurveto
          -149 hlineto
          endchar
        </CharString>
        <CharString name="Oogonek">
          101 -193 -21 755 173 hstemhm
          28 200 -65 126 245 199 hintmask 11011000
          294 -214 rmoveto
          56 100 rlineto
          -42 -19 13 19 24 31 29 52 29 hvcurveto
          200 37 161 188 191 vvcurveto
          154 -96 144 -177 vhcurveto
          hintmask 11101000
          -230 -202 -207 -215 -143 83 -133 153 -19 hvcurveto
          hintmask 11011000
          -66 -38 -35 -44 -40 -38 callgsubr
          47 381 rmoveto
          hintmask 11101000
          -81 -32 66 74 104 66 130 126 81 33 -64 -74 -103 -65 -133 -128 hvcurveto
          endchar
        </CharString>
        <CharString name="Oslash">
          43 callgsubr
          hstemhm
          28 200 306 199 hintmask 10011100
          598 710 rmoveto
          -20 -22 rlineto
          hintmask 01101100
          -14 callgsubr
          hintmask 10011100
          -44 callsubr
          hintmask 10101100
          22 callgsubr
        </CharString>
        <CharString name="Oslashacute">
          43 callgsubr
          226 -20 hstemhm
          28 200 306 199 hintmask 10011110
          637 916 -98 callgsubr
          78 -52 rmoveto
          -20 -22 rlineto
          hintmask 01101110
          -14 callgsubr
          hintmask 10011110
          -44 callsubr
          hintmask 10101110
          22 callgsubr
        </CharString>
        <CharString name="Otilde">
          -45 callgsubr
          44 -63 callgsubr
          28 200 306 199 hintmask 11100110
          -97 callgsubr
          195 591 -43 callsubr
        </CharString>
        <CharString name="P">
          -35 21 -21 218 170 152 170 hstem
          422 200 vstem
          -3 hmoveto
          -4 callgsubr
          46 218 rlineto
          102 hlineto
          154 128 148 139 104 -68 101 -114 hvcurveto
          -292 hlineto
          127 -322 rmoveto
          32 152 rlineto
          83 hlineto
          15 17 -12 -39 -70 -35 -31 -24 hvcurveto
          endchar
        </CharString>
        <CharString name="P.sc">
          -93 63 callgsubr
          368 48 callgsubr
          97 hlineto
          137 112 118 112 86 -63 83 -105 hvcurveto
          -263 hlineto
          116 -250 rmoveto
          22 102 rlineto
          83 hlineto
          16 19 -6 -31 -53 -29 -12 -24 hvcurveto
          endchar
        </CharString>
        <CharString name="Q">
          100 -5 173 -147 -21 542 173 hstemhm
          27 200 306 199 hintmask 01111000
          487 hmoveto
          182 hlineto
          -78 114 rlineto
          85 79 56 111 112 vvcurveto
          154 -96 145 -177 -229 -203 -208 -215 vhcurveto
          hintmask 10111000
          -155 99 -142 176 57 56 13 23 51 vhcurveto
          hintmask 01111000
          hintmask 10111000
          -125 137 rmoveto
          -81 -33 66 73 104 67 131 125 81 33 -65 -74 -48 -14 -53 -27 -44 hvcurveto
          -29 42 rlineto
          -181 hlineto
          88 -130 rlineto
          -1 -9 -10 -1 -10 hhcurveto
          endchar
        </CharString>
        <CharString name="Q.sc">
          0 -4 151 -126 -21 421 151 hstemhm
          14 175 248 174 hintmask 01111000
          420 hmoveto
          159 hlineto
          -75 100 rlineto
          65 62 42 83 84 vvcurveto
          125 -83 118 -152 -192 -170 -165 -170 vhcurveto
          hintmask 10111000
          -126 86 -115 150 52 51 12 21 45 vhcurveto
          hintmask 01111000
          hintmask 10111000
          -113 118 rmoveto
          -68 -28 50 56 76 54 92 99 66 29 -50 -56 -30 -9 -33 -16 -29 hvcurveto
          -19 26 rlineto
          -159 hlineto
          75 -100 rlineto
          -1 -8 -8 -1 -8 hhcurveto
          endchar
        </CharString>
        <CharString name="R">
          60 callgsubr
          hstem
          441 201 vstem
          -78 callsubr
          endchar
        </CharString>
        <CharString name="R.sc">
          -39 63 callgsubr
          385 48 callgsubr
          60 hlineto
          79 -169 rlineto
          193 hlineto
          -94 207 rlineto
          76 47 49 71 74 vvcurveto
          86 -63 83 -105 vhcurveto
          -280 hlineto
          116 -250 rmoveto
          22 102 rlineto
          100 hlineto
          17 18 -13 -27 -40 -29 -22 -23 hvcurveto
          endchar
        </CharString>
        <CharString name="Racute">
          28 callsubr
          586 918 -98 callgsubr
          -277 -764 rmoveto
          -100 callsubr
          endchar
        </CharString>
        <CharString name="Rcaron">
          16 21 -21 388 152 0 170 0 51 157 -20 hstem
          441 201 vstem
          336 761 -93 callsubr
          -60 -876 rmoveto
          -100 callsubr
          endchar
        </CharString>
        <CharString name="Rcommaaccent">
          16 -6 callsubr
          67 39 callgsubr
          hstem
          441 201 vstem
          246 -91 callgsubr
          28 213 rmoveto
          -100 callsubr
          endchar
        </CharString>
        <CharString name="Rdblgrave">
          28 callsubr
          -78 callsubr
          84 374 -95 callsubr
        </CharString>
        <CharString name="Rdotbelow">
          16 -27 callgsubr
          84 39 callgsubr
          hstem
          441 201 vstem
          -78 callsubr
          -75 -601 -100 callgsubr
        </CharString>
        <CharString name="Rinvertedbreve">
          60 callgsubr
          44 -8 callgsubr
          441 201 -164 99 hintmask 11101000
          -78 callsubr
          -122 366 rmoveto
          97 hlineto
          hintmask 11010100
          -77 callsubr
          hintmask 11100100
          -95 callgsubr
        </CharString>
        <CharString name="S">
          45 callsubr
          0 callgsubr
          245 -9 -99 callgsubr
          endchar
        </CharString>
        <CharString name="S.sc">
          -114 -8 154 276 151 hstem
          54 186 42 192 vstem
          206 -8 rmoveto
          123 145 54 165 81 -56 34 -85 29 hvcurveto
          -56 19 -37 7 21 vvcurveto
          15 17 5 24 69 68 -45 -6 6 vhcurveto
          102 141 rlineto
          25 -47 -75 36 -85 hhcurveto
          -131 -134 -82 -143 -64 37 -39 78 -29 hvcurveto
          58 -21 55 -7 -24 vvcurveto
          -10 -9 -8 -31 -90 -78 47 13 -5 vhcurveto
          -105 -149 rlineto
          -38 62 96 -27 84 hhcurveto
          endchar
        </CharString>
        <CharString name="Sacute">
          45 callsubr
          214 -20 0 callgsubr
          571 930 -98 callgsubr
          -209 -785 -99 callgsubr
          endchar
        </CharString>
        <CharString name="Scaron">
          45 callsubr
          0 57 56 callgsubr
          76 214 47 220 hintmask 10111100
          335 773 -93 callsubr
          -6 -897 rmoveto
          143 169 69 202 37 callsubr
          hvcurveto
          3 callgsubr
          hintmask 11011100
          29 24 13 29 81 80 -61 -4 3 vhcurveto
          118 161 rlineto
          32 -54 -86 45 -99 hhcurveto
          -152 -158 -103 -179 -76 43 -46 88 -35 hvcurveto
          66 -26 64 -11 -36 vvcurveto
          -19 -7 -18 -45 -97 -83 63 14 -18 vhcurveto
          -120 -13 callgsubr
          -50 71 109 -33 98 hhcurveto
          endchar
        </CharString>
        <CharString name="Schwa">
          95 -5 170 103 143 132 171 hstem
          15 205 299 209 vstem
          296 -5 rmoveto
          264 168 241 187 139 -87 152 -192 -157 -125 -77 -116 -76 hvcurveto
          192 -57 rlineto
          50 24 58 29 50 hhcurveto
          56 48 -31 -75 -8 -1 -9 -1 -9 hvcurveto
          -474 hlineto
          -13 -30 -15 -42 -55 vvcurveto
          -134 84 -155 197 vhcurveto
          39 170 rmoveto
          -65 -50 30 51 7 1 7 2 8 hvcurveto
          259 hlineto
          -65 -25 -55 -38 -67 hhcurveto
          endchar
        </CharString>
        <CharString name="Scircumflex">
          45 callsubr
          214 -20 0 callgsubr
          330 773 -103 callgsubr
          2 -824 -99 callgsubr
          endchar
        </CharString>
        <CharString name="Sdotbelow">
          -41 -27 callgsubr
          54 26 callsubr
          0 callgsubr
          245 -9 -99 callgsubr
          41 -204 -100 callgsubr
        </CharString>
        <CharString name="T">
          -37 51 callsubr
          hstem
          139 hmoveto
          -4 callgsubr
          -33 callsubr
        </CharString>
        <CharString name="T.sc">
          -92 21 -21 420 148 hstem
          123 hmoveto
          171 hlineto
          90 420 rlineto
          173 hlineto
          32 148 rlineto
          -520 hlineto
          -31 -148 rlineto
          175 hlineto
          endchar
        </CharString>
        <CharString name="Tbar">
          -17 21 -21 268 88 184 170 hstem
          53 268 rmoveto
          152 hlineto
          -56 -268 rlineto
          -4 callgsubr
          56 268 rlineto
          152 hlineto
          19 88 56 callsubr
          9 callgsubr
          190 -89 callgsubr
          -576 -39 callgsubr
          191 -27 callsubr
          -152 hlineto
          endchar
        </CharString>
        <CharString name="Tcaron">
          -37 51 callsubr
          0 49 56 callgsubr
          hintmask 10110000
          323 759 -93 callsubr
          -100 -874 rmoveto
          -4 callgsubr
          hintmask 11010000
          -33 callsubr
        </CharString>
        <CharString name="Tdotbelow">
          -37 -27 callgsubr
          84 39 callgsubr
          hstem
          139 hmoveto
          -4 callgsubr
          37 callgsubr
          190 -89 callgsubr
          -576 -39 callgsubr
          191 hlineto
          22 -753 -100 callgsubr
        </CharString>
        <CharString name="Thorn">
          -52 21 -21 101 170 151 170 118 -20 hstem
          386 197 vstem
          -3 hmoveto
          -4 callgsubr
          21 101 rlineto
          88 hlineto
          154 128 147 140 104 -68 100 -115 hvcurveto
          -82 hlineto
          25 118 rlineto
          -195 hlineto
          102 -439 rmoveto
          32 151 rlineto
          72 hlineto
          16 16 -19 -35 -55 -35 -42 -24 hvcurveto
          endchar
        </CharString>
        <CharString name="U">
          76 -22 callsubr
          hstem
          48 199 vstem
          291 -6 -88 callsubr
        </CharString>
        <CharString name="U.sc">
          -7 -5 151 422 -20 hstem
          32 174 vstem
          250 -5 rmoveto
          184 111 121 159 34 hvcurveto
          62 293 61 callsubr
          -62 -293 rlineto
          -67 -14 -40 -62 -73 hhcurveto
          -54 -22 36 49 14 2 14 3 16 hvcurveto
          62 293 61 callsubr
          -62 -293 rlineto
          -6 -28 -3 -26 -26 vvcurveto
          -114 62 -86 156 vhcurveto
          endchar
        </CharString>
        <CharString name="Uacute">
          -28 callgsubr
          226 -20 47 callgsubr
          618 916 -98 callgsubr
          -211 -768 -88 callsubr
        </CharString>
        <CharString name="Ubreve">
          -28 callgsubr
          64 -9 callsubr
          47 199 62 100 hintmask 11101100
          290 -6 -106 callgsubr
          162 841 -34 callgsubr
          hintmask 11011100
          -94 callgsubr
          hintmask 11101100
          -55 callgsubr
        </CharString>
        <CharString name="Ucircumflex">
          -28 callgsubr
          226 -20 47 callgsubr
          371 759 -103 callgsubr
          6 -807 -88 callsubr
        </CharString>
        <CharString name="Udblgrave">
          -28 callgsubr
          228 -20 47 callgsubr
          290 -6 -106 callgsubr
          228 768 -95 callsubr
        </CharString>
        <CharString name="Udieresis">
          -28 callgsubr
          77 140 47 callgsubr
          418 767 -101 callsubr
          -197 -773 -88 callsubr
        </CharString>
        <CharString name="Udotbelow">
          75 -27 callgsubr
          57 -9 callgsubr
          47 callgsubr
          290 -6 -106 callgsubr
          40 -207 -100 callgsubr
        </CharString>
        <CharString name="Ugrave">
          -28 callgsubr
          227 -20 47 callgsubr
          290 -6 -106 callgsubr
          113 767 -84 callgsubr
        </CharString>
        <CharString name="Uhungarumlaut">
          -28 callgsubr
          227 -20 47 callgsubr
          290 -6 -106 callgsubr
          195 923 -67 callgsubr
          endchar
        </CharString>
        <CharString name="Uinvertedbreve">
          -28 callgsubr
          64 -8 callgsubr
          47 199 272 99 hintmask 11101100
          290 -6 -106 callgsubr
          11 760 rmoveto
          97 hlineto
          hintmask 11011100
          -77 callsubr
          hintmask 11101100
          -95 callgsubr
        </CharString>
        <CharString name="Umacron">
          -28 callgsubr
          103 113 47 callgsubr
          290 -6 -106 callgsubr
          315 799 -72 callgsubr
          endchar
        </CharString>
        <CharString name="Uogonek">
          75 -193 -21 924 -20 hstemhm
          47 199 -93 126 hintmask 11010000
          284 -214 -37 callsubr
          166 32 104 138 37 174 78 365 rcurveline
          -195 hlineto
          -78 -10 callgsubr
          -92 -20 -49 -86 -80 hhcurveto
          hintmask 11100000
          -58 -23 45 62 22 3 24 5 25 hvcurveto
          78 365 rlineto
          -195 hlineto
          -78 -10 callgsubr
          -8 -37 -4 -36 -34 vvcurveto
          -129 59 -99 146 -14 vhcurveto
          hintmask 11010000
          -65 -38 -34 -44 -39 -38 callgsubr
          endchar
        </CharString>
        <CharString name="Uring">
          -28 callgsubr
          52 54 66 54 hstem
          47 199 103 79 77 78 vstem
          349 812 -88 callgsubr
          -183 -868 -88 callsubr
        </CharString>
        <CharString name="Utilde">
          -28 callgsubr
          68 -63 callgsubr
          47 199 hintmask 11100100
          290 -6 -106 callgsubr
          227 764 -75 callsubr
        </CharString>
        <CharString name="V">
          4 2 callsubr
          173 hmoveto
          162 hlineto
          396 710 rlineto
          -205 hlineto
          -220 -465 -24 465 rlineto
          -206 hlineto
          endchar
        </CharString>
        <CharString name="V.sc">
          -56 -11 callgsubr
          154 hmoveto
          141 hlineto
          344 568 -20 callgsubr
          -184 -327 -48 327 rlineto
          -180 hlineto
          endchar
        </CharString>
        <CharString name="W">
          365 2 callsubr
          181 hmoveto
          -92 callgsubr
          endchar
        </CharString>
        <CharString name="W.alt">
          464 21 -21 22 -21 709 -20 21 -20 hstemhm
          hintmask 10010000
          141 hmoveto
          202 hlineto
          224 391 rlineto
          hintmask 01010000
          58 -390 rlineto
          202 hlineto
          359 710 rlineto
          -222 hlineto
          -195 -415 rlineto
          hintmask 10100000
          -28 414 rlineto
          -212 hlineto
          -205 -415 -19 415 rlineto
          -221 hlineto
          endchar
        </CharString>
        <CharString name="W.sc">
          278 -11 callgsubr
          164 hmoveto
          141 hlineto
          126 192 45 -192 rlineto
          141 hlineto
          360 568 rlineto
          -186 hlineto
          -215 -364 -14 89 159 275 rlineto
          -157 hlineto
          -89 -171 -17 171 -18 callgsubr
          40 -275 -50 -89 -62 364 rlineto
          -184 hlineto
          endchar
        </CharString>
        <CharString name="Wacute">
          365 12 callsubr
          763 916 -98 callgsubr
          -465 -762 rmoveto
          -92 callgsubr
          endchar
        </CharString>
        <CharString name="Wcircumflex">
          365 12 callsubr
          514 759 -103 callgsubr
          -246 -801 rmoveto
          -92 callgsubr
          endchar
        </CharString>
        <CharString name="Wdieresis">
          365 -66 callgsubr
          77 140 hstem
          563 767 -101 callsubr
          -451 -767 rmoveto
          -92 callgsubr
          endchar
        </CharString>
        <CharString name="Wgrave">
          365 -66 callgsubr
          227 -20 hstem
          181 hmoveto
          -92 callgsubr
          485 51 -84 callgsubr
        </CharString>
        <CharString name="X">
          -6 2 callsubr
          -66 hmoveto
          211 hlineto
          152 214 61 -214 rlineto
          210 hlineto
          -140 350 299 360 rlineto
          -210 hlineto
          -162 -224 -67 224 rlineto
          -211 hlineto
          146 -360 rlineto
          endchar
        </CharString>
        <CharString name="X.sc">
          -60 -11 callgsubr
          -62 hmoveto
          185 hlineto
          136 161 67 -161 rlineto
          184 hlineto
          -137 280 264 288 rlineto
          -184 hlineto
          -144 -169 -73 169 rlineto
          -184 hlineto
          142 -288 rlineto
          endchar
        </CharString>
        <CharString name="Y">
          -10 2 callsubr
          -86 callsubr
          endchar
        </CharString>
        <CharString name="Y.sc">
          -70 -11 callgsubr
          130 hmoveto
          -5 callsubr
          40 185 290 383 rlineto
          -185 hlineto
          -159 -237 -57 237 rlineto
          -184 hlineto
          125 -382 rlineto
          endchar
        </CharString>
        <CharString name="Yacute">
          -10 12 callsubr
          -86 callsubr
          366 679 -61 callsubr
        </CharString>
        <CharString name="Ycircumflex">
          -10 12 callsubr
          -86 callsubr
          127 522 -69 callgsubr
        </CharString>
        <CharString name="Ydieresis">
          -10 -66 callgsubr
          77 140 hstem
          -86 callsubr
          174 530 -73 callgsubr
        </CharString>
        <CharString name="Ygrave">
          -10 -66 callgsubr
          227 -20 hstem
          -86 callsubr
          162 524 -84 callgsubr
        </CharString>
        <CharString name="Ytilde">
          -10 -66 callgsubr
          68 -63 callgsubr
          hintmask 11100000
          -86 callsubr
          276 521 -90 callsubr
        </CharString>
        <CharString name="Z">
          -44 23 callsubr
          hstem
          -37 hmoveto
          -79 callsubr
          endchar
        </CharString>
        <CharString name="Z.sc">
          -91 0 148 272 148 hstem
          -35 hmoveto
          484 hlineto
          32 148 rlineto
          -271 hlineto
          328 294 27 126 rlineto
          -466 hlineto
          -32 -148 rlineto
          269 hlineto
          -344 -294 rlineto
          endchar
        </CharString>
        <CharString name="Zacute">
          -44 23 callsubr
          206 -20 hstem
          550 916 -98 callgsubr
          -470 -762 rmoveto
          -79 callsubr
          endchar
        </CharString>
        <CharString name="Zcaron">
          -44 7 callgsubr
          hintmask 10110000
          316 759 -93 callsubr
          -269 -874 14 callsubr
          hintmask 11010000
          42 callgsubr
        </CharString>
        <CharString name="Zdotaccent">
          -44 23 callsubr
          56 150 hstem
          -37 hmoveto
          -79 callsubr
          484 621 -100 callgsubr
        </CharString>
        <CharString name="Zdotbelow">
          -44 -27 callgsubr
          63 -12 callsubr
          hstem
          -37 hmoveto
          -79 callsubr
          277 -358 -100 callgsubr
        </CharString>
        <CharString name="a">
          -17 callgsubr
          hstem
          7 200 vstem
          -107 callgsubr
          endchar
        </CharString>
        <CharString name="a.alt">
          57 callgsubr
          hstemhm
          7 200 hintmask 01110000
          193 -10 rmoveto
          64 45 26 53 39 hvcurveto
          hintmask 10110000
          -15 -69 rlineto
          189 hlineto
          110 518 -81 callgsubr
          -15 -70 rlineto
          55 -16 -49 33 -65 hhcurveto
          -150 -133 -153 -180 hvcurveto
          hintmask 01110000
          -126 71 -87 115 vhcurveto
          hintmask 10110000
          85 160 rmoveto
          -44 -27 34 50 73 56 69 55 35 29 -30 -48 7 hvcurveto
          -20 -94 rlineto
          -36 -31 -27 -18 -33 hhcurveto
          endchar
        </CharString>
        <CharString name="a.alt2">
          -72 0 126 -115 -21 246 103 69 128 hstemhm
          -14 185 172 190 hintmask 01111100
          130 -10 rmoveto
          65 54 26 49 41 hvcurveto
          hintmask 10111100
          -13 -65 rlineto
          183 hlineto
          66 312 rlineto
          5 22 2 20 19 vvcurveto
          108 -75 55 -138 -86 -79 -22 -45 -77 vhcurveto
          29 -118 rlineto
          37 61 50 20 56 hhcurveto
          49 20 -17 -34 -7 -1 -7 -1 -8 hvcurveto
          -3 -16 rlineto
          13 -24 -32 7 -37 hhcurveto
          -146 -113 -90 -120 hvcurveto
          hintmask 01111100
          -81 57 -58 87 vhcurveto
          hintmask 10111100
          86 136 rmoveto
          -28 -17 17 24 38 38 31 47 18 25 -6 -8 17 hvcurveto
          -8 -39 -3 -13 -13 -14 -16 -10 rlinecurve
          -12 -19 -22 -8 -19 hhcurveto
          endchar
        </CharString>
        <CharString name="aacute">
          -17 callgsubr
          9 callsubr
          hstem
          7 200 vstem
          -107 callgsubr
          211 580 -61 callsubr
        </CharString>
        <CharString name="abreve">
          -17 callgsubr
          32 -9 callsubr
          7 200 -23 100 hintmask 11101000
          -107 callgsubr
          49 499 rmoveto
          hintmask 11010100
          -26 -18 25 33 7 1 8 2 8 hvcurveto
          -98 hlineto
          -3 -14 -2 -14 -13 vvcurveto
          -73 48 -48 79 92 78 67 95 20 vhcurveto
          -98 hlineto
          hintmask 11101000
          -55 callgsubr
        </CharString>
        <CharString name="acircumflex">
          -17 callgsubr
          9 callsubr
          hstem
          7 200 vstem
          -107 callgsubr
          -41 423 -69 callgsubr
        </CharString>
        <CharString name="acute">
          -363 597 -21 154 -20 hstem
          260 730 -61 callsubr
        </CharString>
        <CharString name="adblgrave">
          -17 callgsubr
          9 callsubr
          hstem
          7 200 vstem
          -107 callgsubr
          119 424 -95 callsubr
        </CharString>
        <CharString name="adieresis">
          -17 callgsubr
          44 140 hstem
          7 200 vstem
          -107 callgsubr
          10 430 -73 callgsubr
        </CharString>
        <CharString name="ae">
          44 callgsubr
          hstemhm
          -14 185 516 199 hintmask 11011100
          130 -10 -70 callgsubr
          hintmask 10111100
          -42 callgsubr
          hintmask 11011100
          11 callsubr
        </CharString>
        <CharString name="aeacute">
          44 callgsubr
          9 callsubr
          hstemhm
          -14 185 516 199 hintmask 11011110
          656 730 -98 callgsubr
          -409 -586 -70 callgsubr
          hintmask 10111110
          -42 callgsubr
          hintmask 11011110
          11 callsubr
        </CharString>
        <CharString name="afii61352">
          450 21 -21 333 112 158 107 5 -20 hstemhm
          756 134 108 134 hintmask 11101100
          449 hmoveto
          154 hlineto
          151 710 rlineto
          -195 hlineto
          -76 -361 -180 361 rlineto
          -152 1 callgsubr
          -4 callgsubr
          74 349 rlineto
          634 -16 rmoveto
          143 86 116 116 hvcurveto
          hintmask 11011100
          82 -46 68 -101 -142 -87 -115 -116 -82 47 -69 100 vhcurveto
          -13 167 rmoveto
          hintmask 11101100
          58 33 45 38 23 14 -21 -34 -58 -33 -45 -38 -23 -14 21 34 vhcurveto
          endchar
        </CharString>
        <CharString name="agrave">
          -17 callgsubr
          9 callsubr
          hstem
          7 200 vstem
          -107 callgsubr
          -19 424 -84 callgsubr
        </CharString>
        <CharString name="ainvertedbreve">
          -17 callgsubr
          32 -8 callgsubr
          7 200 183 99 hintmask 11101100
          -107 callgsubr
          -106 418 rmoveto
          97 hlineto
          hintmask 11011100
          -77 callsubr
          hintmask 11101100
          -95 callgsubr
        </CharString>
        <CharString name="amacron">
          -17 callgsubr
          71 113 hstem
          7 200 vstem
          -107 callgsubr
          195 457 -72 callgsubr
          endchar
        </CharString>
        <CharString name="ampersand">
          91 -10 144 -113 -21 287 129 166 137 hstemhm
          12 185 -77 177 hintmask 01110100
          415 hmoveto
          248 hlineto
          -117 169 27 34 25 39 20 45 rlinecurve
          61 hlineto
          15 129 rlineto
          -187 hlineto
          -7 -51 -14 -44 -19 -37 -106 154 rcurveline
          -42 61 -22 14 26 vvcurveto
          29 26 14 22 26 28 -18 -49 10 vhcurveto
          134 50 rlineto
          108 -20 -80 46 -88 hhcurveto
          -121 -114 -86 -126 -43 13 -35 28 -48 hvcurveto
          hintmask 10111000
          -83 -50 -66 -56 -99 vvcurveto
          -94 60 -92 138 56 63 15 32 61 vhcurveto
          hintmask 01111000
          hintmask 10111000
          -126 97 rmoveto
          -38 -29 19 42 26 11 20 32 21 hvcurveto
          78 -118 rlineto
          -7 -18 -19 -3 -17 hhcurveto
          endchar
        </CharString>
        <CharString name="aogonek">
          9 -194 -21 205 -83 callsubr
          hstem
          7 200 132 126 vstem
          470 -215 -37 callsubr
          -90 callgsubr
          312 -40 callsubr
          -16 -74 rlineto
          55 -16 -50 33 -63 hhcurveto
          -152 -132 -153 -181 -125 70 -87 116 65 67 28 64 48 hvcurveto
          -1 -5 0 -5 -5 vvcurveto
          -45 23 -22 39 -7 vhcurveto
          -62 -37 -33 -43 -39 -38 callgsubr
          -191 365 rmoveto
          -46 -26 33 50 75 56 68 56 36 28 -32 -46 7 hvcurveto
          -20 -94 rlineto
          -36 -33 -26 -18 -32 hhcurveto
          endchar
        </CharString>
        <CharString name="apostrophe">
          -131 577 -21 174 -20 hstem
          328 556 rmoveto
          132 174 rlineto
          -198 -55 hlineto
          -47 -87 rlineto
          endchar
        </CharString>
        <CharString name="approxequal">
          -166 105 107 -59 59 -59 110 26 -63 callgsubr
          hintmask 10001000
          336 424 rmoveto
          -14 -6 -14 -14 -24 hhcurveto
          hintmask 10000100
          19 callsubr
          hintmask 01010000
          58 callsubr
          -87 -144 rmoveto
          -14 -6 -14 -14 -24 hhcurveto
          hintmask 00110000
          19 callsubr
          hintmask 10010000
          58 callsubr
          endchar
        </CharString>
        <CharString name="aring">
          -17 callgsubr
          20 54 66 54 hstem
          7 200 9 79 77 78 vstem
          -107 callgsubr
          -63 476 -88 callgsubr
          endchar
        </CharString>
        <CharString name="aringacute">
          -17 callgsubr
          20 54 66 54 156 -20 hstem
          7 200 7 79 79 76 vstem
          -107 callgsubr
          253 736 -98 callgsubr
          -201 -106 -88 callgsubr
          endchar
        </CharString>
        <CharString name="asciicircum">
          -7 324 -21 407 -20 hstem
          195 303 rmoveto
          126 253 123 -253 rlineto
          153 hlineto
          -197 407 rlineto
          -158 hlineto
          -198 -407 rlineto
          endchar
        </CharString>
        <CharString name="asciitilde">
          -50 216 107 -59 110 hstemhm
          hintmask 10000000
          32 216 rmoveto
          101 hlineto
          hintmask 01000000
          2 2 46 62 vhcurveto
          hintmask 10000000
          64 48 -48 77 hhcurveto
          hintmask 01000000
          130 40 137 21 hvcurveto
          -100 hlineto
          hintmask 10000000
          -4 -9 -47 -60 vhcurveto
          hintmask 01000000
          -63 -45 51 -81 hhcurveto
          hintmask 10000000
          -127 -39 -125 -33 hvcurveto
          endchar
        </CharString>
        <CharString name="asterisk">
          -281 475 -21 267 -20 hstem
          166 454 rmoveto
          63 83 29 -83 78 45 -31 78 73 21 -7 77 -79 -36 24 82 rlineto
          -95 hlineto
          -11 -82 -64 36 -40 -77 64 -21 -63 -78 rlineto
          endchar
        </CharString>
        <CharString name="at">
          183 -146 70 70 70 -70 88 281 105 65 70 hstemhm
          16 75 66 109 430 75 hintmask 11011111
          588 64 rmoveto
          -20 -12 15 23 9 2 14 2 10 hvcurveto
          59 315 rlineto
          -83 hlineto
          -10 -56 rlineto
          45 -9 -44 29 -61 hhcurveto
          -133 -122 -136 -154 -110 63 -74 99 50 46 19 47 55 hvcurveto
          -1 -4 0 -5 -2 vvcurveto
          -41 33 -24 48 126 95 163 164 185 -121 107 -183 -249 -202 -199 -249 -183 110 -118 173 59 59 14 26 56 vhcurveto
          -7 68 rlineto
          -27 -61 -44 -11 -48 hhcurveto
          -138 -84 90 150 205 158 164 200 151 96 -93 -149 -111 -54 -116 -54 hvcurveto
          hintmask 10111111
          -234 18 rmoveto
          -65 -23 48 56 99 71 78 66 46 27 -37 -42 3 hvcurveto
          -16 -115 rlineto
          -56 -24 -32 -31 -53 hhcurveto
          endchar
        </CharString>
        <CharString name="atilde">
          -17 callgsubr
          36 -63 callgsubr
          7 200 hintmask 11100100
          -107 callgsubr
          105 422 -75 callsubr
        </CharString>
        <CharString name="b">
          -10 -10 160 -129 -21 376 160 9 callsubr
          hstemhm
          404 200 hintmask 10111000
          305 -10 rmoveto
          157 142 148 187 123 -61 88 -107 -66 -64 -34 -54 -37 hvcurveto
          60 282 -81 callgsubr
          hintmask 01111000
          -155 -730 rlineto
          165 hlineto
          17 82 rlineto
          hintmask 10111000
          -60 18 48 -32 73 hhcurveto
          -18 160 rmoveto
          -35 -17 18 36 -18 hvcurveto
          20 94 rlineto
          46 26 43 32 35 hhcurveto
          39 24 -38 -51 -77 -54 -60 -63 hvcurveto
          endchar
        </CharString>
        <CharString name="backslash">
          26 2 callsubr
          106 710 rmoveto
          263 -710 rlineto
          209 hlineto
          -262 710 rlineto
          endchar
        </CharString>
        <CharString name="bar">
          -279 -109 -21 905 -20 hstem
          104 160 vstem
          264 -130 rmoveto
          905 -160 -905 vlineto
          endchar
        </CharString>
        <CharString name="braceleft">
          -277 -10 -21 771 -20 hstem
          78 184 vstem
          377 590 rmoveto
          32 150 rlineto
          -200 hlineto
          -8 -16 -6 -24 -5 hvcurveto
          -44 -209 rlineto
          -37 -8 -40 -38 -27 hhcurveto
          -27 -130 rlineto
          21 -5 23 -22 -33 vvcurveto
          -6 -1 -5 -1 -6 vhcurveto
          -47 -220 rlineto
          -1 -4 0 -3 -3 vvcurveto
          -17 10 -3 7 vhcurveto
          200 hlineto
          32 150 rlineto
          -52 hlineto
          35 165 rlineto
          1 6 1 6 6 vvcurveto
          25 -14 18 -12 15 vhcurveto
          24 19 24 20 8 37 33 154 rcurveline
          endchar
        </CharString>
        <CharString name="braceright">
          -273 -10 -21 771 -20 hstem
          164 590 rmoveto
          -33 -154 rlineto
          -2 -7 0 -6 -6 vvcurveto
          -25 13 -17 12 -15 vhcurveto
          -22 -18 -26 -22 -8 -36 -35 -165 rcurveline
          -52 hlineto
          -32 -150 rlineto
          200 hlineto
          7 17 5 25 5 hvcurveto
          46 220 9 42 38 29 28 6 rlinecurve
          28 130 rlineto
          -24 -21 28 32 5 1 5 1 5 hvcurveto
          45 209 rlineto
          1 4 0 3 3 vvcurveto
          15 -10 5 -7 vhcurveto
          -200 hlineto
          -32 -150 rlineto
          endchar
        </CharString>
        <CharString name="bracketleft">
          -291 -40 150 480 150 hstem
          233 -40 rmoveto
          31 150 rlineto
          -67 hlineto
          102 480 rlineto
          67 hlineto
          32 150 rlineto
          -242 hlineto
          -166 -780 rlineto
          endchar
        </CharString>
        <CharString name="bracketright">
          -290 -40 150 480 150 hstem
          212 -40 rmoveto
          165 780 rlineto
          -242 hlineto
          -32 -150 rlineto
          68 hlineto
          -102 -480 rlineto
          -68 hlineto
          -32 -150 rlineto
          endchar
        </CharString>
        <CharString name="breve">
          -281 568 -9 callsubr
          20 100 hintmask 10100000
          164 649 -34 callgsubr
          hintmask 01100000
          -94 callgsubr
          hintmask 10100000
          -55 callgsubr
        </CharString>
        <CharString name="brokenbar">
          -287 -109 -21 905 -20 hstem
          100 160 vstem
          100 254 rmoveto
          -384 160 384 vlineto
          -160 521 rmoveto
          -384 160 384 vlineto
          endchar
        </CharString>
        <CharString name="bullet">
          -273 236 234 hstem
          76 232 vstem
          308 374 rmoveto
          53 -36 43 -55 -70 -71 -64 -74 -54 37 -42 54 72 69 64 74 vhcurveto
          endchar
        </CharString>
        <CharString name="c">
          -82 -10 -83 callsubr
          hstem
          6 198 vstem
          232 -10 rmoveto
          122 95 59 84 60 hvcurveto
          66 callsubr
          -25 -21 -24 -14 -26 hhcurveto
          -37 -24 31 51 86 53 58 56 27 18 -14 -25 10 hvcurveto
          197 56 rlineto
          84 -24 -70 59 -123 hhcurveto
          -208 -134 -162 -163 -119 73 -102 153 hvcurveto
          endchar
        </CharString>
        <CharString name="c_t">
          331 -11 161 -161 173 -151 -21 386 160 -10 -20 145 79 hstemhm
          7 198 278 73 138 193 hintmask 0011011110000000
          233 -10 rmoveto
          123 95 59 84 59 hvcurveto
          66 callsubr
          hintmask 1001011110000000
          -25 -21 -23 -14 -27 hhcurveto
          -37 -24 31 51 86 55 58 54 27 18 -14 -25 10 hvcurveto
          197 56 rlineto
          -5 23 -5 50 41 vvcurveto
          69 12 75 82 31 13 -15 -37 vhcurveto
          hintmask 0100111110000000
          -18 -3 -24 -6 -31 vhcurveto
          -62 callsubr
          -51 -241 -17 callsubr
          -79 55 -28 72 55 5 callsubr
          37 174 rlineto
          97 hlineto
          30 143 rlineto
          -96 hlineto
          6 28 6 31 28 vvcurveto
          63 -30 54 -132 -156 -86 -70 -130 -7 0 -17 1 -7 vhcurveto
          hintmask 0011011110000000
          24 -38 -30 13 -60 hhcurveto
          -221 -128 -164 -161 -120 74 -101 152 hvcurveto
          endchar
        </CharString>
        <CharString name="cacute">
          -82 -10 -83 callsubr
          9 callsubr
          hstem
          6 198 vstem
          518 730 -98 callgsubr
          -169 -586 rmoveto
          122 95 59 84 60 hvcurveto
          66 callsubr
          -25 -21 -24 -14 -26 hhcurveto
          -37 -24 31 51 86 53 58 56 27 18 -14 -25 10 hvcurveto
          197 56 rlineto
          84 -24 -70 59 -123 hhcurveto
          -208 -134 -162 -163 -119 73 -102 153 hvcurveto
          endchar
        </CharString>
        <CharString name="caron">
          -249 594 -21 157 -20 hstem
          102 573 -93 callsubr
          endchar
        </CharString>
        <CharString name="caron.alt">
          -363 577 -21 174 -20 hstem
          128 -40 callgsubr
          endchar
        </CharString>
        <CharString name="ccaron">
          -82 -10 -83 callsubr
          0 37 56 callgsubr
          6 198 hintmask 10111000
          286 573 -93 callsubr
          30 -698 rmoveto
          122 95 59 84 60 hvcurveto
          66 callsubr
          -25 -21 -24 -14 -26 hhcurveto
          -37 -24 31 51 hvcurveto
          hintmask 11011000
          86 53 58 56 27 18 -14 -25 10 vhcurveto
          197 56 rlineto
          84 -24 -70 59 -123 hhcurveto
          -208 -134 -162 -163 -119 73 -102 153 hvcurveto
          endchar
        </CharString>
        <CharString name="ccedilla">
          -82 38 callsubr
          -55 237 226 160 hstemhm
          6 198 59 86 hintmask 11011100
          73 -192 rmoveto
          -77 callgsubr
          23 26 103 11 81 55 54 75 rlinecurve
          66 callsubr
          hintmask 10111100
          -25 -21 -24 -14 -26 hhcurveto
          -37 -24 31 51 86 53 58 56 27 18 -14 -25 10 hvcurveto
          197 56 rlineto
          84 -24 -70 59 -123 hhcurveto
          -208 -134 -162 -163 -110 62 -96 130 -13 hvcurveto
          -59 -88 -16 callgsubr
          -63 callsubr
          endchar
        </CharString>
        <CharString name="ccircumflex">
          -82 -10 -83 callsubr
          9 callsubr
          hstem
          6 198 vstem
          282 573 -103 callgsubr
          37 -625 rmoveto
          122 95 59 84 60 hvcurveto
          66 callsubr
          -25 -21 -24 -14 -26 hhcurveto
          -37 -24 31 51 86 53 58 56 27 18 -14 -25 10 hvcurveto
          197 56 rlineto
          84 -24 -70 59 -123 hhcurveto
          -208 -134 -162 -163 -119 73 -102 153 hvcurveto
          endchar
        </CharString>
        <CharString name="cdotaccent">
          -82 -10 -83 callsubr
          44 150 hstem
          6 198 vstem
          232 -10 rmoveto
          122 95 59 84 60 hvcurveto
          66 callsubr
          -25 -21 -24 -14 -26 hhcurveto
          -37 -24 31 51 86 53 58 56 27 18 -14 -25 10 hvcurveto
          197 56 rlineto
          84 -24 -70 59 -123 hhcurveto
          -208 -134 -162 -163 -119 73 -102 153 hvcurveto
          210 590 -100 callgsubr
        </CharString>
        <CharString name="cedilla">
          -287 38 callsubr
          68 -20 hstem
          168 86 vstem
          -22 -192 rmoveto
          -77 callgsubr
          45 51 -64 19 -90 -132 -16 callgsubr
          -63 callsubr
          endchar
        </CharString>
        <CharString name="cent">
          -38 -99 -21 131 -21 655 -20 hstem
          25 197 vstem
          258 -120 rmoveto
          24 110 rlineto
          61 122 47 96 64 hvcurveto
          -173 56 -10 -13 -10 -12 -19 -9 rlinecurve
          46 215 9 -3 13 -14 3 -16 rlinecurve
          197 56 -28 93 -77 45 -83 3 rlinecurve
          24 111 rlineto
          -79 hlineto
          -24 -111 rlineto
          -191 -35 -102 -143 -143 vvcurveto
          -109 66 -104 112 -9 vhcurveto
          -24 -111 rlineto
          43 346 rmoveto
          53 27 61 32 21 vhcurveto
          -42 -197 rlineto
          -12 14 -5 25 23 vvcurveto
          endchar
        </CharString>
        <CharString name="circumflex">
          -249 594 -21 157 -20 hstem
          105 573 -69 callgsubr
        </CharString>
        <CharString name="colon">
          -338 0 184 151 184 hstem
          234 39 callsubr
          83 -335 49 callgsubr
          endchar
        </CharString>
        <CharString name="colonmonetary">
          -74 -99 -21 131 -21 386 160 -1 -20 130 -20 hstemhm
          10 198 hintmask 11101100
          89 -120 rmoveto
          83 hlineto
          -5 callgsubr
          -2 12 14 -1 14 hhcurveto
          6 5 0 1 6 hvcurveto
          -24 -111 rlineto
          84 hlineto
          26 125 73 22 59 47 42 59 rlinecurve
          66 callsubr
          -25 -21 -24 -14 -26 hhcurveto
          -37 -24 31 51 86 53 58 56 27 18 -14 -25 10 hvcurveto
          197 56 -17 58 -39 46 -64 23 rlinecurve
          27 125 rlineto
          -84 hlineto
          hintmask 11011100
          -24 -110 rlineto
          hintmask 11101100
          -5 -6 1 -5 hhcurveto
          -14 -14 -1 -1 -13 hvcurveto
          24 111 rlineto
          -84 hlineto
          -28 -132 rlineto
          -133 -50 -80 -126 -126 vvcurveto
          -83 35 -74 72 -38 vhcurveto
          endchar
        </CharString>
        <CharString name="comma">
          -381 -136 -21 178 -21 184 -20 hstem
          56 -157 10 callsubr
        </CharString>
        <CharString name="commaaccent">
          -401 -6 callsubr
          hstem
          119 -91 callgsubr
          endchar
        </CharString>
        <CharString name="copyright">
          225 -7 64 54 160 166 160 54 64 hstem
          57 70 52 195 385 70 vstem
          438 -7 rmoveto
          225 166 155 207 206 -166 154 -225 -219 -162 -154 -206 -207 162 -155 219 hvcurveto
          64 vmoveto
          -178 -133 132 166 164 134 132 177 184 137 -132 -164 -176 -141 -122 -180 hvcurveto
          10 54 rmoveto
          122 84 59 84 41 hvcurveto
          -185 56 rlineto
          -25 -15 -21 -14 -27 hhcurveto
          -40 -33 30 53 53 33 30 40 27 21 -14 -25 15 hvcurveto
          185 56 rlineto
          84 -41 -84 59 -122 hhcurveto
          -174 -95 -114 -129 -129 95 -114 174 hvcurveto
          endchar
        </CharString>
        <CharString name="currency">
          -51 122 -21 46 112 158 112 49 -20 hstem
          97 133 146 133 vstem
          131 578 rmoveto
          -71 -71 65 -66 rlineto
          -19 -30 -9 -36 -37 vvcurveto
          -38 10 -36 19 -31 vhcurveto
          -66 -66 66 -66 72 68 rlineto
          -14 29 35 -8 41 hhcurveto
          40 34 7 14 28 hvcurveto
          71 -67 66 66 -64 64 rlineto
          20 31 11 37 39 vvcurveto
          38 -11 37 -19 31 vhcurveto
          63 63 -71 71 -68 -69 rlineto
          12 -28 -33 8 -39 hhcurveto
          -40 -34 -8 -14 -29 hvcurveto
          30 -169 rmoveto
          49 30 30 43 43 30 -30 -49 -49 -30 -30 -43 -43 -30 30 49 vhcurveto
          endchar
        </CharString>
        <CharString name="d">
          8 -10 -83 callsubr
          9 callsubr
          hstem
          7 200 vstem
          21 callgsubr
          19 27 3 7 35 vhcurveto
          -30 callgsubr
          -125 70 -87 116 hvcurveto
          86 160 rmoveto
          -46 -26 33 50 75 56 68 56 36 28 -32 -46 7 hvcurveto
          -20 -94 rlineto
          -36 -33 -26 -18 -32 hhcurveto
          endchar
        </CharString>
        <CharString name="d.alt">
          57 callgsubr
          9 callsubr
          hstemhm
          7 200 hintmask 01111000
          193 -10 rmoveto
          65 44 26 53 39 hvcurveto
          hintmask 10111000
          -15 -69 rlineto
          189 hlineto
          155 730 rlineto
          -190 53 callgsubr
          -15 -50 33 -65 hhcurveto
          -149 -134 -153 -181 hvcurveto
          hintmask 01111000
          -125 70 -87 116 vhcurveto
          hintmask 10111000
          85 160 rmoveto
          -44 -27 33 51 73 56 69 55 36 28 -30 -48 8 hvcurveto
          -20 -94 rlineto
          -36 -33 -25 -18 -34 hhcurveto
          endchar
        </CharString>
        <CharString name="dagger">
          -141 -109 -21 316 170 419 -20 hstem
          247 -130 rmoveto
          67 316 rlineto
          125 -89 callgsubr
          -125 hlineto
          90 419 rlineto
          -180 hlineto
          -89 -419 rlineto
          -126 -39 callgsubr
          125 hlineto
          -67 -316 rlineto
          endchar
        </CharString>
        <CharString name="daggerdbl">
          -114 -109 -21 183 170 113 170 269 -20 hstem
          261 -130 rmoveto
          39 183 rlineto
          125 -89 callgsubr
          -125 hlineto
          -5 callgsubr
          125 -89 callgsubr
          -124 hlineto
          57 269 rlineto
          -180 hlineto
          -57 -269 rlineto
          -126 -39 callgsubr
          126 hlineto
          -24 -113 rlineto
          -126 -39 callgsubr
          125 hlineto
          -38 -183 rlineto
          endchar
        </CharString>
        <CharString name="dcaron">
          8 -10 -83 callsubr
          9 callsubr
          hstem
          7 200 vstem
          793 -40 callgsubr
          -487 -598 -18 callsubr
          19 27 3 7 35 vhcurveto
          -30 callgsubr
          -125 70 -87 116 hvcurveto
          86 160 rmoveto
          -46 -26 33 50 75 56 68 56 36 28 -32 -46 7 hvcurveto
          -20 -94 rlineto
          -36 -33 -26 -18 -32 hhcurveto
          endchar
        </CharString>
        <CharString name="dcroat">
          8 -10 -83 callsubr
          43 109 -109 151 hstemhm
          7 200 hintmask 11101000
          378 579 rmoveto
          70 hlineto
          -28 -131 rlineto
          55 -16 -50 33 -63 hhcurveto
          -152 -132 -153 -181 -125 70 -87 116 65 67 28 64 48 hvcurveto
          -19 vlineto
          -49 32 -24 64 -55 callsubr
          79 369 rlineto
          63 hlineto
          24 109 rlineto
          -64 hlineto
          hintmask 11011000
          9 42 -40 callsubr
          hintmask 11101000
          -9 -42 rlineto
          -70 hlineto
          -122 -538 rmoveto
          -46 -26 33 50 75 56 68 56 36 28 -32 -46 7 hvcurveto
          -20 -94 rlineto
          -36 -33 -26 -18 -32 hhcurveto
          endchar
        </CharString>
        <CharString name="ddotbelow">
          8 -27 callgsubr
          53 -83 callsubr
          9 callsubr
          hstem
          7 200 vstem
          21 callgsubr
          19 27 3 7 35 vhcurveto
          -30 callgsubr
          -125 70 -87 116 hvcurveto
          86 160 rmoveto
          -46 -26 33 50 75 56 68 56 36 28 -32 -46 7 hvcurveto
          -20 -94 rlineto
          -36 -33 -26 -18 -32 hhcurveto
          30 -363 -100 callgsubr
        </CharString>
        <CharString name="degree">
          -343 486 87 63 88 hstem
          91 88 60 90 vstem
          184 486 rmoveto
          81 64 62 83 54 -36 39 -58 -83 -61 -72 -75 -55 35 -36 58 hvcurveto
          19 87 rmoveto
          -16 -8 13 14 19 19 17 18 11 12 -6 -18 -20 -19 -19 -17 hvcurveto
          endchar
        </CharString>
        <CharString name="dieresis">
          -81 580 140 hstem
          229 580 -73 callgsubr
        </CharString>
        <CharString name="divide">
          -132 27 160 48 150 50 160 hstem
          176 159 vstem
          335 435 rmoveto
          160 -159 -160 vlineto
          159 -408 rmoveto
          160 -159 -160 vlineto
          281 208 65 callsubr
        </CharString>
        <CharString name="dollar">
          -7 -108 -21 944 -20 hstem
          93 214 vstem
          642 639 rmoveto
          -46 27 -70 37 -81 10 22 102 rcurveline
          -79 hlineto
          -22 -101 rlineto
          -139 -15 -134 -101 -164 vvcurveto
          -76 42 -49 89 -32 vhcurveto
          59 -21 -18 -86 -86 14 -70 55 -5 5 rlinecurve
          -120 -170 59 -42 86 -30 84 -8 rlinecurve
          -26 -123 rlineto
          80 hlineto
          25 121 rlineto
          136 9 146 73 188 vvcurveto
          98 -67 45 -94 32 vhcurveto
          -38 13 19 89 69 -14 54 -40 7 -7 rlinecurve
          -170 -274 rmoveto
          -17 -6 -17 -33 -3 vhcurveto
          14 69 rlineto
          15 -8 10 -11 -13 vvcurveto
          -47 297 rmoveto
          23 16 13 21 4 vhcurveto
          -16 -71 rlineto
          -14 8 -7 10 13 vvcurveto
          endchar
        </CharString>
        <CharString name="dotaccent">
          -372 580 150 hstem
          202 580 -100 callgsubr
        </CharString>
        <CharString name="dotbelow">
          -372 -27 callgsubr
          hstem
          172 -213 -100 callgsubr
        </CharString>
        <CharString name="dotlessi">
          21 -21 526 -20 -22 callgsubr
          endchar
        </CharString>
        <CharString name="dotlessj">
          47 callsubr
          572 -36 callsubr
          endchar
        </CharString>
        <CharString name="e">
          -62 callgsubr
          -101 callgsubr
          endchar
        </CharString>
        <CharString name="eacute">
          15 callgsubr
          519 730 -98 callgsubr
          -169 -586 -107 callsubr
          endchar
        </CharString>
        <CharString name="ebreve">
          -62 callgsubr
          32 -9 callsubr
          7 198 20 100 46 186 hintmask 11110111
          -104 callgsubr
          49 248 -34 callgsubr
          hintmask 11101111
          -94 callgsubr
          hintmask 11110111
          -55 callgsubr
        </CharString>
        <CharString name="ecaron">
          -71 -10 136 78 114 0 83 135 37 56 callgsubr
          -28 callsubr
          hintmask 11011110
          286 573 -93 callsubr
          31 -698 rmoveto
          110 114 57 85 59 hvcurveto
          -149 48 rlineto
          -35 -22 -34 -19 -42 hhcurveto
          -46 -18 21 57 hvcurveto
          29 hlineto
          212 111 61 118 96 -76 57 -127 -193 -154 -143 -180 -135 89 -88 137 hvcurveto
          hintmask 10111110
          87 411 rmoveto
          30 21 -16 -23 -33 -36 -11 -102 hvcurveto
          -7 hlineto
          50 21 34 33 39 hhcurveto
          endchar
        </CharString>
        <CharString name="ecircumflex">
          15 callgsubr
          285 573 -103 callgsubr
          35 -625 -107 callsubr
          endchar
        </CharString>
        <CharString name="edblgrave">
          -71 -10 136 78 114 83 135 194 -20 -101 callgsubr
          102 173 -95 callsubr
        </CharString>
        <CharString name="edieresis">
          -62 callgsubr
          44 140 hstem
          -28 callsubr
          vstem
          331 580 -101 callsubr
          -167 -590 -107 callsubr
          endchar
        </CharString>
        <CharString name="edotaccent">
          -62 callgsubr
          44 150 -101 callgsubr
          126 179 -100 callgsubr
        </CharString>
        <CharString name="edotbelow">
          -71 -27 callgsubr
          53 136 78 114 83 135 -101 callgsubr
          -41 -614 -100 callgsubr
        </CharString>
        <CharString name="egrave">
          -71 -10 136 78 114 83 135 194 -20 -101 callgsubr
          -11 173 -84 callgsubr
        </CharString>
        <CharString name="eight">
          -8 callsubr
          229 -10 rmoveto
          160 149 112 152 57 -25 44 -23 24 hvcurveto
          -26 callsubr
          vhcurveto
          36 173 rmoveto
          49 callsubr
          -46 -35 -39 -45 hvcurveto
          59 279 rmoveto
          hintmask 11101010
          -18 -17 13 27 51 callgsubr
          hvcurveto
          endchar
        </CharString>
        <CharString name="eight.denominator">
          -211 -6 33 callgsubr
          -10 -50 callsubr
          hintmask 11110100
          149 -6 -30 callsubr
          -59 callsubr
          vhcurveto
          23 109 rmoveto
          -29 callgsubr
          -26 -42 -20 -42 hvcurveto
          35 172 rmoveto
          hintmask 11101010
          -27 -28 10 17 -60 callgsubr
          hvcurveto
          endchar
        </CharString>
        <CharString name="eight.lnum">
          -8 callsubr
          538 254 rmoveto
          57 -25 44 -23 24 vhcurveto
          -26 callsubr
          160 149 112 152 vhcurveto
          -193 -6 rmoveto
          -46 -35 -39 -45 49 callsubr
          vhcurveto
          hintmask 11101010
          -56 234 rmoveto
          51 callgsubr
          -18 -17 13 27 vhcurveto
          endchar
        </CharString>
        <CharString name="eight.numerator">
          -210 284 33 callgsubr
          52 -50 callsubr
          hintmask 11110100
          427 441 -74 callgsubr
          -41 -20 -43 -35 -33 -59 callgsubr
        </CharString>
        <CharString name="eightinferior">
          -211 -96 33 callgsubr
          -29 -50 callsubr
          hintmask 11110100
          346 61 -74 callgsubr
          -42 -20 -42 -36 -32 -59 callgsubr
        </CharString>
        <CharString name="eightsuperior">
          -212 374 33 callgsubr
          70 -50 callsubr
          hintmask 11110100
          445 531 -74 callgsubr
          -42 -20 -42 -36 -32 -59 callgsubr
        </CharString>
        <CharString name="einvertedbreve">
          -62 callgsubr
          32 -8 callgsubr
          -28 callsubr
          -128 99 hintmask 11110110
          -104 callgsubr
          -108 167 rmoveto
          97 hlineto
          hintmask 11101101
          -77 callsubr
          hintmask 11110101
          -95 callgsubr
        </CharString>
        <CharString name="ellipsis">
          77 0 184 hstem
          141 50 callsubr
          384 50 callsubr
          384 50 callsubr
          endchar
        </CharString>
        <CharString name="emacron">
          -62 callgsubr
          71 113 -101 callgsubr
          195 206 -72 callgsubr
          endchar
        </CharString>
        <CharString name="emdash">
          274 191 170 hstem
          838 191 rmoveto
          36 170 rlineto
          -812 -39 callgsubr
          endchar
        </CharString>
        <CharString name="emspace">
          258 endchar
        </CharString>
        <CharString name="endash">
          6 callsubr
        </CharString>
        <CharString name="eng">
          -37 47 callsubr
          67 -16 callsubr
          -10 36 callgsubr
          hintmask 11101000
          248 -209 rmoveto
          117 102 90 131 28 hvcurveto
          71 334 rlineto
          5 22 4 26 25 vvcurveto
          59 -23 58 -97 -86 -72 -31 -57 -47 vhcurveto
          hintmask 11011000
          -21 callgsubr
          -112 -526 rlineto
          -65 callsubr
          63 295 rlineto
          hintmask 11101000
          44 25 43 31 26 hhcurveto
          21 18 -15 -33 -8 -1 -8 -2 -10 hvcurveto
          -64 -299 rlineto
          -27 -6 -16 -16 -22 hhcurveto
          -17 -14 8 12 -7 hvcurveto
          -105 -129 rlineto
          -35 32 47 -19 53 hhcurveto
          endchar
        </CharString>
        <CharString name="enspace">
          -44 endchar
        </CharString>
        <CharString name="eogonek">
          -71 -198 -21 345 78 114 83 0 135 hstemhm
          7 198 -120 120 166 186 hintmask 11011010
          216 -219 -37 callsubr
          88 16 84 51 48 69 -149 48 rcurveline
          -35 -22 -34 -19 -42 hhcurveto
          -46 -18 21 57 hvcurveto
          29 hlineto
          212 111 61 118 96 -76 57 -127 -193 -154 -143 -180 -120 70 -83 112 -17 hvcurveto
          hintmask 11100110
          -68 -38 -36 -45 -40 -38 callgsubr
          104 620 rmoveto
          30 21 -16 -23 -33 -36 -11 -102 hvcurveto
          -7 hlineto
          50 21 34 33 39 hhcurveto
          endchar
        </CharString>
        <CharString name="equal">
          -145 101 120 110 120 hstem
          401 101 rmoveto
          120 -323 -120 vlineto
          323 230 rmoveto
          120 -323 -120 vlineto
          endchar
        </CharString>
        <CharString name="estimated">
          -9 -10 57 188 60 184 57 hstem
          24 147 284 146 vstem
          312 47 rmoveto
          -54 -53 24 33 -34 hvcurveto
          131 430 vlineto
          169 -116 132 -173 -172 -116 -125 -151 -145 114 -125 174 110 79 36 47 51 vhcurveto
          -36 43 rlineto
          -37 -40 -67 -32 -97 hhcurveto
          432 vmoveto
          55 53 -23 -48 35 hvcurveto
          -113 -284 114 vlineto
          47 34 53 23 54 hhcurveto
          endchar
        </CharString>
        <CharString name="eth">
          -34 -10 160 170 151 259 -20 hstem
          4 198 167 216 vstem
          568 712 rmoveto
          -79 -39 -21 24 -23 20 -25 13 rlinecurve
          -228 hlineto
          60 -37 48 -38 34 -42 -66 -32 rcurveline
          37 -71 73 34 8 -18 7 -18 5 -19 rlinecurve
          5 -20 3 -22 1 -22 rrcurveto
          29 -30 -44 17 -47 hhcurveto
          -146 -136 -128 -152 -118 88 -83 142 212 139 155 234 82 -19 80 -33 65 hvcurveto
          72 35 rlineto
          -403 -425 rmoveto
          60 43 44 59 42 23 -26 -40 -60 -43 -44 -58 -42 -24 26 40 vhcurveto
          endchar
        </CharString>
        <CharString name="etilde">
          -62 callgsubr
          36 -63 callgsubr
          -28 callsubr
          hintmask 11110011
          -104 callgsubr
          103 171 rmoveto
          hintmask 11100111
          -71 callgsubr
          hintmask 11110011
          -48 callgsubr
          hintmask 11100111
          -43 -12 51 -63 hhcurveto
          hintmask 11110011
          -71 callsubr
          hintmask 11101011
          2 10 46 43 vhcurveto
          hintmask 11110011
          -51 callgsubr
        </CharString>
        <CharString name="exclam">
          -307 0 184 533 -20 hstem
          260 300 rmoveto
          88 417 -81 callgsubr
          -88 -417 rlineto
          126 -300 rmoveto
          39 184 rlineto
          -190 -27 callsubr
          endchar
        </CharString>
        <CharString name="exclamdown">
          -306 14 -21 533 184 hstem
          94 410 rmoveto
          -89 -417 rlineto
          -65 callsubr
          89 417 rlineto
          -127 300 rmoveto
          -15 callgsubr
          -65 callsubr
          9 callgsubr
          endchar
        </CharString>
        <CharString name="f">
          -243 -192 -21 535 52 callsubr
          hstem
          -28 -213 rmoveto
          -65 callsubr
          114 535 -42 callsubr
          endchar
        </CharString>
        <CharString name="f_f">
          35 -24 callgsubr
          105 hlineto
          30 143 rlineto
          -105 hlineto
          14 64 rlineto
          34 7 16 17 27 hhcurveto
          16 27 -6 -8 20 hvcurveto
          62 144 rlineto
          20 -49 -46 10 -38 hhcurveto
          -61 -52 -24 -40 -41 -48 callsubr
        </CharString>
        <CharString name="f_f_i">
          250 -24 callgsubr
          97 hlineto
          -69 -322 rlineto
          191 hlineto
          99 465 rlineto
          -288 hlineto
          14 64 rlineto
          34 7 22 17 41 hhcurveto
          37 50 -26 -38 34 hvcurveto
          102 144 rlineto
          55 -77 -69 25 -64 hhcurveto
          -77 -69 -24 -40 -49 -48 callsubr
        </CharString>
        <CharString name="f_f_l">
          333 0 160 -148 -21 331 143 81 160 -126 160 hstemhm
          714 196 hintmask 01110100
          759 -9 rmoveto
          70 83 30 3 4 hvcurveto
          9 152 rlineto
          hintmask 10101100
          -1 -35 -16 -21 hhcurveto
          -23 -7 18 20 6 1 7 1 6 hvcurveto
          63 40 callgsubr
          -83 -74 -20 -44 -52 vhcurveto
          hintmask 10110100
          20 -48 -45 10 -42 hhcurveto
          -112 -91 -86 -132 -29 hvcurveto
          -5 -23 -65 callgsubr
          -68 -322 rlineto
          -4 callsubr
          88 10 callgsubr
          hintmask 01101100
          46 9 23 40 43 hhcurveto
          36 12 -17 -29 -14 -3 -18 -4 -19 hvcurveto
          -78 -366 rlineto
          -2 -8 -1 -8 -8 vvcurveto
          -57 46 -45 87 vhcurveto
          -452 474 rmoveto
          6 30 rlineto
          hintmask 10110100
          34 7 17 17 26 hhcurveto
          12 18 -3 -5 16 hvcurveto
          -4 -24 -5 -25 -5 -24 rrcurveto
          endchar
        </CharString>
        <CharString name="f_i">
          -30 21 -21 322 52 callsubr
          hstem
          18 hmoveto
          -4 callsubr
          97 hlineto
          -68 -322 rlineto
          -65 callsubr
          99 465 rlineto
          -288 hlineto
          14 64 rlineto
          34 7 25 17 34 hhcurveto
          43 46 -24 -40 37 hvcurveto
          102 144 rlineto
          54 -73 -61 26 -73 hhcurveto
          -134 -116 -86 -132 -28 hvcurveto
          -12 -57 -65 callgsubr
          endchar
        </CharString>
        <CharString name="f_l">
          55 0 160 -148 -21 331 52 callsubr
          hstemhm
          436 196 hintmask 01111000
          481 -9 rmoveto
          71 82 30 3 4 hvcurveto
          10 152 rlineto
          hintmask 10111000
          -2 -35 -16 -21 hhcurveto
          -22 -7 18 19 7 1 6 1 7 hvcurveto
          62 40 callgsubr
          -143 -114 -61 -139 -30 vhcurveto
          -16 -75 rlineto
          -61 hlineto
          -31 -143 rlineto
          61 10 callgsubr
          51 10 22 35 50 hhcurveto
          30 11 -14 -29 -16 -4 -22 -5 -26 hvcurveto
          -76 -356 rlineto
          -2 -8 -1 -8 -8 vvcurveto
          hintmask 01111000
          -57 46 -45 87 vhcurveto
          endchar
        </CharString>
        <CharString name="five">
          -97 -149 64 callgsubr
          274 200 vstem
          152 -149 rmoveto
          181 141 65 callgsubr
          -14 -14 -1 -4 -9 -53 callsubr
        </CharString>
        <CharString name="five.denominator">
          -240 -6 25 callgsubr
          232 111 vstem
          117 -6 rmoveto
          126 100 76 100 70 -55 49 -84 -30 -18 -6 -2 -8 hvcurveto
          26 51 -21 callsubr
          23 109 rlineto
          -247 hlineto
          -36 -93 -45 -90 -36 -92 rrcurveto
          93 hlineto
          25 17 39 18 28 hhcurveto
          23 29 -13 -34 -12 callgsubr
          hvcurveto
          -78 -76 rlineto
          -43 23 57 -26 70 hhcurveto
          endchar
        </CharString>
        <CharString name="five.lnum">
          -80 -9 64 callgsubr
          312 200 vstem
          190 -9 rmoveto
          180 142 65 callgsubr
          -19 -14 -3 -2 -4 -53 callsubr
        </CharString>
        <CharString name="five.numerator">
          -239 284 25 callgsubr
          295 111 vstem
          267 579 -82 callgsubr
        </CharString>
        <CharString name="fiveeighths">
          276 25 callsubr
          9 105 -54 105 59 80 43 109 hstemhm
          307 111 49 -50 callsubr
          hintmask 1011011110100000
          626 -6 -30 callsubr
          hintmask 1010111101010000
          -81 callsubr
          hintmask 1011011110100000
          -83 callgsubr
          hintmask 1010111101010000
          -27 -28 10 17 -60 callgsubr
          hvcurveto
          -405 304 rmoveto
          -30 -18 -6 -2 -8 hvcurveto
          26 51 -21 callsubr
          23 109 rlineto
          -247 hlineto
          -36 -93 -45 -90 -36 -92 rrcurveto
          93 hlineto
          25 17 40 18 27 hhcurveto
          23 29 -13 -34 hvcurveto
          hintmask 0111011110100000
          -12 callgsubr
          vhcurveto
          -78 -76 rlineto
          -43 23 57 -26 70 hhcurveto
          126 100 76 100 70 -55 49 -84 hvcurveto
          -91 -589 -87 callgsubr
          endchar
        </CharString>
        <CharString name="fiveinferior">
          -239 -96 25 callgsubr
          214 111 vstem
          186 199 -82 callgsubr
        </CharString>
        <CharString name="fivesuperior">
          -240 374 25 callgsubr
          313 111 vstem
          285 669 -82 callgsubr
        </CharString>
        <CharString name="florin">
          -93 47 callsubr
          368 52 callsubr
          hstem
          64 -209 rmoveto
          115 102 86 125 27 hvcurveto
          68 320 -42 callsubr
          -69 -325 rlineto
          -27 -6 -15 -16 -22 hhcurveto
          -16 -15 8 12 -7 hvcurveto
          -105 -129 rlineto
          -35 32 48 -19 53 hhcurveto
          endchar
        </CharString>
        <CharString name="four">
          -67 -106 -21 124 170 404 -20 hstem
          169 -127 rmoveto
          -65 callsubr
          26 124 rlineto
          84 -89 callgsubr
          -84 hlineto
          86 404 rlineto
          -130 hlineto
          -384 -404 -45 callsubr
          238 hlineto
          -15 170 rmoveto
          99 120 66 callgsubr
          endchar
        </CharString>
        <CharString name="four.denominator">
          -219 1 -2 callsubr
          160 1 rmoveto
          107 hlineto
          hintmask 01100000
          18 83 rlineto
          61 8 callgsubr
          -61 hlineto
          53 250 rlineto
          -74 hlineto
          -290 -250 -23 -107 rlineto
          203 hlineto
          hintmask 10100000
          22 callsubr
          endchar
        </CharString>
        <CharString name="four.lnum">
          -62 22 -21 136 170 404 -20 hstem
          390 1 rmoveto
          29 136 rlineto
          84 -89 callgsubr
          -84 hlineto
          86 404 rlineto
          -130 hlineto
          -383 -404 -45 callsubr
          237 hlineto
          -29 -136 rlineto
          15 306 rmoveto
          98 120 66 callgsubr
          endchar
        </CharString>
        <CharString name="four.numerator">
          -220 291 -2 callsubr
          328 291 rmoveto
          hintmask 01100000
          18 83 rlineto
          61 8 callgsubr
          -61 hlineto
          53 250 rlineto
          -74 hlineto
          -290 -250 -23 -107 rlineto
          203 hlineto
          hintmask 10100000
          -17 -83 rlineto
          70 311 rmoveto
          -26 -121 rlineto
          -107 hlineto
          endchar
        </CharString>
        <CharString name="fourinferior">
          -220 -89 -2 callsubr
          247 -89 rmoveto
          hintmask 01100000
          18 83 rlineto
          61 8 callgsubr
          -61 hlineto
          53 250 rlineto
          -74 hlineto
          -290 -250 -23 -107 rlineto
          203 hlineto
          hintmask 10100000
          -17 -83 rlineto
          70 311 rmoveto
          -26 -121 rlineto
          -107 hlineto
          endchar
        </CharString>
        <CharString name="foursuperior">
          -220 381 -2 callsubr
          347 381 rmoveto
          hintmask 01100000
          18 83 rlineto
          61 8 callgsubr
          -61 hlineto
          53 250 rlineto
          -74 hlineto
          -290 -250 -23 -107 rlineto
          203 hlineto
          hintmask 10100000
          -17 -83 rlineto
          70 311 rmoveto
          -26 -121 rlineto
          -107 hlineto
          endchar
        </CharString>
        <CharString name="fraction">
          -397 11 -21 731 -20 hstem
          -157 -10 -87 callgsubr
          endchar
        </CharString>
        <CharString name="franc">
          -57 0 196 -120 120 68 158 118 170 hstemhm
          hintmask 10110000
          227 hmoveto
          hintmask 01110000
          16 76 rlineto
          99 46 callsubr
          -99 hlineto
          15 68 rlineto
          219 hlineto
          34 158 rlineto
          -219 hlineto
          25 118 rlineto
          269 hlineto
          37 170 rlineto
          -465 hlineto
          -110 -514 rlineto
          -60 hlineto
          66 callgsubr
          61 hlineto
          hintmask 10110000
          -16 -76 rlineto
          endchar
        </CharString>
        <CharString name="g">
          -54 callgsubr
          hstemhm
          8 198 hintmask 11011000
          6 callgsubr
          hintmask 11101000
          -103 callsubr
          endchar
        </CharString>
        <CharString name="gacute">
          -54 callgsubr
          224 -20 hstemhm
          8 198 hintmask 11011100
          6 callgsubr
          hintmask 11101100
          -103 callsubr
          213 580 -61 callsubr
        </CharString>
        <CharString name="gbreve">
          -54 callgsubr
          62 -9 callsubr
          8 198 14 100 hintmask 11011011
          6 callgsubr
          hintmask 11101011
          -103 callsubr
          87 499 -34 callgsubr
          hintmask 11100111
          -94 callgsubr
          hintmask 11101011
          -55 callgsubr
        </CharString>
        <CharString name="gcircumflex">
          -54 callgsubr
          224 -20 hstemhm
          8 198 hintmask 11011100
          272 573 -103 callgsubr
          -26 -838 -69 callsubr
          hintmask 11101100
          -103 callsubr
          endchar
        </CharString>
        <CharString name="gcommaaccent">
          -54 callgsubr
          72 167 hstemhm
          8 198 hintmask 11011100
          6 callgsubr
          hintmask 11101100
          -103 callsubr
          84 595 rmoveto
          -67 -61 -22 -106 rlineto
          156 hlineto
          23 106 rlineto
          -57 hlineto
          49 61 rlineto
          endchar
        </CharString>
        <CharString name="gdotaccent">
          -54 callgsubr
          74 150 hstemhm
          8 198 hintmask 11011100
          6 callgsubr
          hintmask 11101100
          -103 callsubr
          165 430 -100 callgsubr
        </CharString>
        <CharString name="germandbls">
          -91 -6 174 -147 -21 554 160 hstemhm
          312 199 -170 190 hintmask 10110000
          182 -6 rmoveto
          143 186 56 208 70 -30 52 -50 23 hvcurveto
          hintmask 01101000
          46 23 54 73 79 vvcurveto
          86 -66 50 -98 -130 -118 -79 -106 -23 vhcurveto
          -112 -529 rlineto
          180 hlineto
          105 494 rlineto
          39 8 12 21 24 hhcurveto
          16 12 -12 -20 -17 -6 -32 -35 hvcurveto
          -20 -39 callgsubr
          22 hlineto
          hintmask 10110000
          14 32 -15 -38 -52 -46 -30 -47 hvcurveto
          endchar
        </CharString>
        <CharString name="grave">
          -362 595 -21 156 -20 hstem
          98 574 -84 callgsubr
        </CharString>
        <CharString name="greater">
          -82 -19 -21 596 -20 hstem
          507 298 rmoveto
          -424 258 rlineto
          -202 vlineto
          148 -95 -148 -87 rlineto
          -212 vlineto
          424 250 rlineto
          endchar
        </CharString>
        <CharString name="greaterequal">
          -107 1 150 509 -20 hstem
          89 1 rmoveto
          380 150 -380 hlineto
          1 43 rmoveto
          375 150 rlineto
          148 vlineto
          -375 168 rlineto
          -182 vlineto
          198 -55 -198 -47 rlineto
          endchar
        </CharString>
        <CharString name="guillemotleft">
          56 -13 callsubr
          325 -88 rmoveto
          227 -180 32 152 -100 77 134 85 33 152 -308 -198 rlineto
          endchar
        </CharString>
        <CharString name="guillemotright">
          56 51 -21 466 -20 hstem
          662 298 rmoveto
          -223 198 -33 -152 99 -85 -133 -77 -32 -152 303 180 rlineto
          -325 88 11 callgsubr
        </CharString>
        <CharString name="guilsinglleft">
          -288 -13 callsubr
          endchar
        </CharString>
        <CharString name="guilsinglright">
          -288 51 -21 466 -20 hstem
          318 298 11 callgsubr
        </CharString>
        <CharString name="h">
          -20 callsubr
          9 callsubr
          hstem
          370 206 vstem
          -16 hmoveto
          -85 callsubr
          60 282 -81 callgsubr
          endchar
        </CharString>
        <CharString name="hbar">
          -20 callsubr
          43 109 -109 151 hstemhm
          370 206 hintmask 11101000
          61 579 rmoveto
          46 hlineto
          -123 -579 rlineto
          -85 callsubr
          28 131 rlineto
          89 hlineto
          23 109 rlineto
          -89 hlineto
          hintmask 11011000
          9 42 -81 callgsubr
          hintmask 11101000
          -9 -42 rlineto
          -46 hlineto
          endchar
        </CharString>
        <CharString name="hcircumflex">
          -20 callsubr
          193 -20 21 -20 hstemhm
          370 206 hintmask 11101000
          400 574 rmoveto
          87 62 63 -62 97 41 -78 114 rlineto
          -126 hlineto
          -123 -114 rlineto
          -336 -615 rmoveto
          -85 callsubr
          hintmask 11011000
          60 282 -81 callgsubr
          endchar
        </CharString>
        <CharString name="hdotbelow">
          -36 -27 callgsubr
          84 -16 callsubr
          9 callsubr
          hstem
          370 206 vstem
          -16 hmoveto
          -85 callsubr
          60 282 -81 callgsubr
          144 -943 -100 callgsubr
        </CharString>
        <CharString name="hungarumlaut">
          -253 600 -21 151 -20 hstem
          202 730 -67 callgsubr
          endchar
        </CharString>
        <CharString name="hyphen">
          -239 191 170 hstem
          325 191 rmoveto
          36 170 rlineto
          -299 -39 callgsubr
          endchar
        </CharString>
        <CharString name="i">
          21 -57 callgsubr
          endchar
        </CharString>
        <CharString name="iacute">
          -31 callsubr
          365 730 -98 callgsubr
          -264 -576 4 callsubr
        </CharString>
        <CharString name="ibreve">
          -39 callsubr
          62 -9 callsubr
          64 100 hintmask 11101000
          -67 callsubr
          112 123 -34 callgsubr
          hintmask 11011000
          -94 callgsubr
          hintmask 11101000
          -55 callgsubr
        </CharString>
        <CharString name="icircumflex">
          -31 callsubr
          127 573 -103 callgsubr
          -56 -615 4 callsubr
        </CharString>
        <CharString name="idblgrave">
          16 callgsubr
          180 48 -95 callsubr
        </CharString>
        <CharString name="idieresis">
          -39 callsubr
          74 140 hstem
          169 580 -101 callsubr
          -254 -580 4 callsubr
        </CharString>
        <CharString name="idotbelow">
          -27 callgsubr
          84 -57 callgsubr
          -18 -943 -100 callgsubr
        </CharString>
        <CharString name="igrave">
          16 callgsubr
          55 48 -84 callgsubr
        </CharString>
        <CharString name="iinvertedbreve">
          -39 callsubr
          62 -8 callgsubr
          271 99 hintmask 11101000
          -67 callsubr
          -42 42 rmoveto
          97 hlineto
          hintmask 11011000
          -77 callsubr
          hintmask 11101000
          -95 callgsubr
        </CharString>
        <CharString name="ij">
          -61 47 callsubr
          67 -57 callgsubr
          81 -939 -98 callsubr
          -61 callgsubr
        </CharString>
        <CharString name="imacron">
          -39 callsubr
          101 113 -22 callgsubr
          260 81 -72 callgsubr
          endchar
        </CharString>
        <CharString name="infinity">
          123 146 140 130 141 hstem
          51 140 399 140 vstem
          231 557 rmoveto
          -102 -78 -91 -114 -112 89 -94 91 88 43 34 39 31 hvcurveto
          -39 32 43 -34 82 hhcurveto
          102 78 91 114 112 -70 94 -109 -86 -41 -38 -44 -33 hvcurveto
          44 -33 -42 38 -85 hhcurveto
          20 -271 rmoveto
          -28 -32 19 47 46 32 18 28 43 19 -30 -36 20 hvcurveto
          -35 -20 -20 -29 -42 hhcurveto
          280 hmoveto
          -41 -21 27 33 -18 hvcurveto
          38 17 19 32 44 hhcurveto
          29 30 -18 -46 -47 -30 -19 -29 hvcurveto
          endchar
        </CharString>
        <CharString name="integral">
          -220 -167 159 669 159 hstemhm
          101 193 -176 191 -175 193 hintmask 11010000
          129 149 rmoveto
          hintmask 11001000
          -2 5 -99 -2 vvcurveto
          -35 -16 -19 -30 -13 -16 6 9 -14 vhcurveto
          -26 -140 rlineto
          -21 46 62 -13 50 hhcurveto
          97 53 49 91 hvcurveto
          4 -6 127 4 vvcurveto
          -23 411 rlineto
          hintmask 11100000
          2 -4 84 2 vvcurveto
          35 16 19 30 13 16 -6 -9 14 vhcurveto
          26 -15 callsubr
          21 -46 -62 13 -50 hhcurveto
          -97 -53 -50 -90 hvcurveto
          -4 6 -121 -4 vvcurveto
          endchar
        </CharString>
        <CharString name="iogonek">
          -193 -21 235 -33 callgsubr
          64 160 hstem
          -38 126 vstem
          -16 hmoveto
          85 -31 callgsubr
          55 29 hvcurveto
          -66 callsubr
          9 44 -56 callsubr
        </CharString>
        <CharString name="itilde">
          -39 callsubr
          66 -63 callgsubr
          hintmask 11100000
          -67 callsubr
          172 46 -90 callsubr
        </CharString>
        <CharString name="j">
          -347 47 callsubr
          572 -20 64 160 hstem
          -66 -35 callsubr
          -61 callgsubr
        </CharString>
        <CharString name="j.alt">
          -192 -21 783 160 hstem
          -61 -213 rmoveto
          -65 callsubr
          155 730 -81 callgsubr
          11 53 rmoveto
          189 hlineto
          -38 callsubr
          rlineto
          -189 hlineto
          endchar
        </CharString>
        <CharString name="jcircumflex">
          47 callsubr
          572 -20 224 -36 callsubr
          188 782 -69 callgsubr
        </CharString>
        <CharString name="k">
          -55 21 -21 369 162 199 -20 hstem
          392 170 vstem
          -16 hmoveto
          -52 callsubr
        </CharString>
        <CharString name="kcommaaccent">
          -55 -6 callsubr
          67 -21 369 162 199 -20 hstem
          392 170 vstem
          227 -91 callgsubr
          -161 213 rmoveto
          -52 callsubr
        </CharString>
        <CharString name="kgreenlandic">
          -73 54 callsubr
          -16 hmoveto
          -65 callsubr
          32 150 39 42 67 -192 rlineto
          201 hlineto
          -125 296 218 230 rlineto
          -199 hlineto
          -163 -195 42 195 -81 callgsubr
          endchar
        </CharString>
        <CharString name="l">
          -292 -10 159 581 -20 -44 callgsubr
          endchar
        </CharString>
        <CharString name="l.alt">
          21 -21 730 -20 hstem
          -16 hmoveto
          -65 callsubr
          155 730 -81 callgsubr
          endchar
        </CharString>
        <CharString name="lacute">
          -292 -10 159 581 -20 181 -20 hstem
          392 891 -98 callgsubr
          -143 -747 rmoveto
          49 64 13 21 48 hvcurveto
          6 -15 callsubr
          -9 -17 -20 -6 -15 hhcurveto
          -24 -12 13 25 6 1 8 2 8 hvcurveto
          111 521 -81 callgsubr
          -125 -588 rlineto
          -4 -16 -1 -15 -14 vvcurveto
          -69 44 -38 83 vhcurveto
          endchar
        </CharString>
        <CharString name="lcaron">
          -292 -10 159 581 -20 hstem
          438 -40 callgsubr
          -193 -598 rmoveto
          49 64 13 21 48 hvcurveto
          6 -15 callsubr
          -9 -17 -20 -6 -15 hhcurveto
          -24 -12 13 25 6 1 8 2 8 hvcurveto
          111 521 -81 callgsubr
          -125 -588 rlineto
          -4 -16 -1 -15 -14 vvcurveto
          -69 44 -38 83 vhcurveto
          endchar
        </CharString>
        <CharString name="lcommaaccent">
          -292 -6 callsubr
          36 159 581 -20 hstem
          97 -91 callgsubr
          117 203 rmoveto
          49 64 13 21 48 hvcurveto
          6 -15 callsubr
          -9 -17 -20 -6 -15 hhcurveto
          -24 -12 13 25 6 1 8 2 8 hvcurveto
          111 521 -81 callgsubr
          -125 -588 rlineto
          -4 -16 -1 -15 -14 vvcurveto
          -69 44 -38 83 vhcurveto
          endchar
        </CharString>
        <CharString name="ldot">
          -162 -10 159 113 184 284 -20 -44 callgsubr
          320 272 49 callgsubr
          endchar
        </CharString>
        <CharString name="less">
          -83 -19 -21 596 -20 hstem
          28 210 rmoveto
          424 -250 rlineto
          212 vlineto
          -148 87 148 95 rlineto
          202 vlineto
          -424 -258 rlineto
          endchar
        </CharString>
        <CharString name="lessequal">
          -140 1 150 509 -20 hstem
          428 1 rmoveto
          150 -380 -150 vlineto
          4 343 rmoveto
          375 -150 rlineto
          182 vlineto
          -198 47 198 55 rlineto
          182 vlineto
          -375 -168 rlineto
          endchar
        </CharString>
        <CharString name="lira">
          -82 57 callsubr
          31 120 30 120 100 153 hstemhm
          131 165 hintmask 01011110
          45 342 rmoveto
          103 hlineto
          1 -4 0 -5 -4 -6 -1 -5 -6 vvcurveto
          -109 hlineto
          66 callgsubr
          85 hlineto
          -21 -28 -26 -24 -26 -15 63 callsubr
          hintmask 10011110
          64 64 21 callsubr
          hintmask 00111110
          -40 -40 15 -39 hhcurveto
          hintmask 10011110
          -21 -24 -4 -11 -33 hvcurveto
          17 16 14 15 13 15 rrcurveto
          124 hlineto
          26 120 rlineto
          -95 hlineto
          1 8 1 10 12 vvcurveto
          99 46 callsubr
          -139 hlineto
          -2 10 -1 11 9 -10 callsubr
          -11 1 -11 1 -11 hvcurveto
          -63 hlineto
          endchar
        </CharString>
        <CharString name="logicalnot">
          -22 110 -21 172 170 hstem
          74 431 rmoveto
          -45 callsubr
          350 hlineto
          -37 -172 rlineto
          160 hlineto
          73 342 rlineto
          endchar
        </CharString>
        <CharString name="lozenge">
          -21 20 -21 730 -20 hstem
          215 729 rmoveto
          -186 -364 186 -366 rlineto
          214 hlineto
          186 366 -186 364 rlineto
          -99 -605 rmoveto
          -124 250 115 227 125 -248 rlineto
          endchar
        </CharString>
        <CharString name="lslash">
          -243 -10 159 581 -20 hstem
          25 252 rmoveto
          62 28 -29 -138 rlineto
          -4 -16 -1 -15 -14 vvcurveto
          -69 44 -38 83 49 63 13 21 49 vhcurveto
          6 -15 callsubr
          -9 -17 -20 -6 -15 hhcurveto
          -24 -12 13 25 6 1 8 2 8 hvcurveto
          35 166 112 51 -21 101 -65 -29 50 232 -81 callgsubr
          -70 -328 -109 -49 rlineto
          endchar
        </CharString>
        <CharString name="m">
          266 -19 callsubr
          -10 -20 hstemhm
          671 207 hintmask 11010000
          -16 hmoveto
          -65 callsubr
          63 295 rlineto
          41 22 42 34 27 hhcurveto
          18 29 callsubr
          62 295 rlineto
          42 23 42 33 27 hhcurveto
          17 29 callsubr
          74 346 rlineto
          8 39 1 23 12 vvcurveto
          59 -23 57 -95 -74 -73 -34 -57 -47 vhcurveto
          48 -5 -25 43 -89 hhcurveto
          -76 -75 -31 -57 -46 hvcurveto
          hintmask 10110000
          -21 callgsubr
          endchar
        </CharString>
        <CharString name="macron">
          -217 607 113 hstem
          346 607 -72 callgsubr
          endchar
        </CharString>
        <CharString name="minus">
          -89 280 150 hstem
          485 280 65 callsubr
        </CharString>
        <CharString name="mu">
          31 33 callsubr
          376 -20 hstem
          -49 -213 rmoveto
          -65 callsubr
          39 239 rlineto
          -23 17 -13 29 53 69 63 29 15 vhcurveto
          -19 vlineto
          -49 32 -24 64 23 29 3 7 40 vhcurveto
          -38 callsubr
          rlineto
          -27 1 -11 8 20 vvcurveto
          6 1 7 2 8 vhcurveto
          67 316 -81 callgsubr
          -68 -322 rlineto
          -45 -39 -29 -9 -19 hhcurveto
          -28 -14 16 29 8 2 10 -47 callsubr
          -190 hlineto
          endchar
        </CharString>
        <CharString name="multiply">
          -131 94 -21 403 -20 hstem
          362 278 rmoveto
          80 80 -117 118 -80 -80 -80 80 -119 -118 80 -81 -86 -86 117 -118 87 87 87 -87 119 118 rlineto
          endchar
        </CharString>
        <CharString name="n">
          -20 callsubr
          -10 36 callgsubr
          hintmask 11010000
          -16 hmoveto
          -97 callsubr
          hintmask 10110000
          -21 callgsubr
          endchar
        </CharString>
        <CharString name="nacute">
          -20 callsubr
          -10 -20 224 36 callgsubr
          hintmask 11011000
          503 730 -98 callgsubr
          -402 -576 rmoveto
          -97 callsubr
          hintmask 10111000
          -21 callgsubr
          endchar
        </CharString>
        <CharString name="napostrophe">
          -20 callsubr
          -10 -20 224 36 callgsubr
          hintmask 11011000
          12 556 rmoveto
          132 174 rlineto
          -198 -55 hlineto
          -47 -87 rlineto
          85 -588 rmoveto
          -97 callsubr
          hintmask 10111000
          -21 callgsubr
          endchar
        </CharString>
        <CharString name="ncaron">
          -20 callsubr
          -10 -20 30 37 157 36 callgsubr
          hintmask 10111100
          282 573 -93 callsubr
          -214 -688 rmoveto
          -65 callsubr
          63 295 rlineto
          hintmask 11001100
          44 25 43 31 26 hhcurveto
          21 18 -15 -33 -8 -1 -8 -2 -10 hvcurveto
          -63 -296 rlineto
          -65 callsubr
          73 346 rlineto
          4 21 4 25 25 vvcurveto
          60 -23 59 -97 -86 -72 -31 -57 -47 vhcurveto
          hintmask 10111100
          -21 callgsubr
          endchar
        </CharString>
        <CharString name="ncommaaccent">
          -36 -6 callsubr
          67 -16 callsubr
          -10 36 callgsubr
          hintmask 11101000
          221 -91 callgsubr
          -155 213 rmoveto
          -97 callsubr
          hintmask 11011000
          -21 callgsubr
          endchar
        </CharString>
        <CharString name="ndotaccent">
          -20 callsubr
          -10 -20 74 150 36 callsubr
          hintmask 11011000
          440 580 rmoveto
          32 150 61 callsubr
          -32 -150 rlineto
          -286 -580 rmoveto
          -97 callsubr
          hintmask 10111000
          -21 callgsubr
          endchar
        </CharString>
        <CharString name="nine">
          -63 -155 62 callsubr
          28 184 150 173 vstem
          167 -155 rmoveto
          29 callgsubr
          -147 -135 -157 -110 76 -81 118 41 32 11 23 30 hvcurveto
          -71 -19 17 callsubr
          102 392 rmoveto
          -34 -23 29 38 56 51 52 43 33 23 -33 -40 -56 -46 -46 -47 hvcurveto
          endchar
        </CharString>
        <CharString name="nine.denominator">
          -207 -6 55 callgsubr
          20 106 166 98 vstem
          133 -6 rmoveto
          153 104 122 167 101 -52 60 -95 -119 -104 -81 -97 -70 59 -52 94 31 42 6 14 23 hvcurveto
          -42 -11 -42 -25 -57 hhcurveto
          -38 -34 12 21 -18 hvcurveto
          -78 -77 rlineto
          -39 31 51 -20 60 hhcurveto
          65 245 rmoveto
          -41 -31 19 26 31 46 29 48 41 31 -23 -26 -31 -45 -25 -49 hvcurveto
          endchar
        </CharString>
        <CharString name="nine.lnum">
          -44 -10 62 callsubr
          68 185 150 173 vstem
          68 424 rmoveto
          -110 76 -81 118 42 32 11 23 29 vhcurveto
          -71 -18 17 callsubr
          29 callgsubr
          -148 -135 -157 hvcurveto
          279 133 rmoveto
          33 23 -33 -40 -56 -46 -46 -47 -34 -23 29 38 56 50 52 44 hvcurveto
          endchar
        </CharString>
        <CharString name="nine.numerator">
          -207 280 55 callgsubr
          81 106 166 98 vstem
          81 552 rmoveto
          -70 58 -52 95 -58 callgsubr
          -53 60 -94 -120 -103 -81 -97 hvcurveto
          200 78 rmoveto
          41 31 -14 callsubr
        </CharString>
        <CharString name="nineinferior">
          -207 -96 55 callgsubr
          1 106 166 98 vstem
          1 176 rmoveto
          -70 59 -52 94 -58 callgsubr
          -52 60 -95 -119 -104 -81 -97 hvcurveto
          200 78 rmoveto
          42 30 -14 callsubr
        </CharString>
        <CharString name="ninesuperior">
          -206 370 55 callgsubr
          100 106 166 98 vstem
          100 642 rmoveto
          -70 59 -52 94 -58 callgsubr
          -53 60 -94 -119 -104 -81 -97 hvcurveto
          200 78 rmoveto
          41 31 -14 callsubr
        </CharString>
        <CharString name="notequal">
          -175 9 -21 123 120 90 120 130 -20 hstem
          63 321 rmoveto
          140 hlineto
          -42 -90 rlineto
          -98 -120 42 hlineto
          -43 -91 65 -32 58 123 rlineto
          201 120 -145 hlineto
          43 90 rlineto
          102 120 -46 hlineto
          46 96 -65 34 -61 -130 rlineto
          -197 hlineto
          endchar
        </CharString>
        <CharString name="ntilde">
          -20 callsubr
          -10 -20 66 -63 callgsubr
          370 205 hintmask 11010010
          -16 hmoveto
          -97 callsubr
          hintmask 10110010
          -21 callgsubr
          334 46 rmoveto
          hintmask 11000110
          -71 callgsubr
          hintmask 11010010
          -48 callgsubr
          hintmask 11000110
          -43 -12 51 -63 hhcurveto
          hintmask 11010010
          -71 callsubr
          hintmask 11001010
          2 10 46 43 vhcurveto
          hintmask 11010010
          -51 callgsubr
        </CharString>
        <CharString name="numbersign">
          90 21 -21 170 140 87 130 183 -20 hstem
          740 527 rmoveto
          -122 hlineto
          83 64 callsubr
          -47 hlineto
          82 64 callsubr
          -140 hlineto
          -28 -130 rlineto
          108 hlineto
          -35 -87 rlineto
          -140 hlineto
          -30 -140 rlineto
          106 hlineto
          -75 -13 callgsubr
          151 hlineto
          74 170 rlineto
          47 hlineto
          -75 -13 callgsubr
          150 hlineto
          75 170 rlineto
          155 hlineto
          30 -15 callsubr
          -121 hlineto
          35 87 rlineto
          153 hlineto
          -385 -87 rmoveto
          35 87 rlineto
          47 hlineto
          -35 -87 rlineto
          endchar
        </CharString>
        <CharString name="o">
          0 callsubr
          -78 callgsubr
          endchar
        </CharString>
        <CharString name="oacute">
          0 callsubr
          9 callsubr
          13 callgsubr
          531 730 -98 callgsubr
          -182 -586 -105 callsubr
          endchar
        </CharString>
        <CharString name="obreve">
          0 callsubr
          32 -9 callsubr
          7 198 23 100 47 198 hintmask 11101110
          -94 callsubr
          106 499 -34 callgsubr
          hintmask 11011110
          -94 callgsubr
          hintmask 11101110
          -55 callgsubr
        </CharString>
        <CharString name="ocircumflex">
          0 callsubr
          9 callsubr
          13 callgsubr
          287 573 -103 callgsubr
          32 -625 -105 callsubr
          endchar
        </CharString>
        <CharString name="odblgrave">
          0 callsubr
          9 callsubr
          -78 callgsubr
          165 424 -95 callsubr
        </CharString>
        <CharString name="odieresis">
          0 callsubr
          44 140 13 callgsubr
          330 580 -101 callsubr
          -167 -590 -105 callsubr
          endchar
        </CharString>
        <CharString name="odotbelow">
          -41 -27 callgsubr
          53 -83 callsubr
          -78 callgsubr
          16 -363 -100 callgsubr
        </CharString>
        <CharString name="oe">
          310 -10 132 -132 160 55 114 57 160 -135 135 hstemhm
          7 198 170 185 176 195 hintmask 10110111
          230 -10 rmoveto
          64 48 20 60 85 hvcurveto
          -59 60 40 -21 65 hhcurveto
          111 105 54 89 64 hvcurveto
          -147 46 rlineto
          -33 -18 -42 -24 -39 hhcurveto
          -40 -26 27 40 5 1 5 1 6 hvcurveto
          344 hlineto
          11 26 14 35 51 vvcurveto
          128 -85 91 -136 -71 -57 -25 -61 -74 vhcurveto
          59 -40 -50 27 -74 hhcurveto
          -184 -153 -142 -185 -129 85 -90 138 hvcurveto
          hintmask 01110111
          36 160 rmoveto
          -39 -22 32 49 81 47 64 62 39 22 -32 -49 -81 -47 -64 -62 hvcurveto
          314 169 rmoveto
          hintmask 10101111
          50 15 37 32 43 hhcurveto
          39 22 -26 -43 hvcurveto
          -4 -1 -4 -5 vvcurveto
          endchar
        </CharString>
        <CharString name="ogonek">
          -314 -193 -21 239 -20 hstem
          46 126 vstem
          177 -214 -37 callsubr
          -51 24 rlineto
          -104 -42 -56 -58 -50 -38 callgsubr
          endchar
        </CharString>
        <CharString name="ograve">
          0 callsubr
          9 callsubr
          -78 callgsubr
          57 424 -84 callgsubr
        </CharString>
        <CharString name="ohungarumlaut">
          0 callsubr
          9 callsubr
          13 callgsubr
          414 730 -67 callgsubr
          -261 -589 -105 callsubr
          endchar
        </CharString>
        <CharString name="oinvertedbreve">
          0 callsubr
          32 -8 callgsubr
          23 callgsubr
          -148 99 hintmask 11101100
          -94 callsubr
          -58 418 rmoveto
          97 hlineto
          hintmask 11011010
          -77 callsubr
          hintmask 11101010
          -95 callgsubr
        </CharString>
        <CharString name="omacron">
          0 callsubr
          71 113 13 callgsubr
          518 607 -72 callgsubr
          10 -617 -105 callsubr
          endchar
        </CharString>
        <CharString name="one">
          -105 0 170 401 -20 hstem
          -4 hmoveto
          450 -89 callgsubr
          -121 hlineto
          85 401 rlineto
          -194 hlineto
          -32 -22 -116 -63 -35 hhcurveto
          -37 -174 rlineto
          49 89 36 31 29 hvcurveto
          -42 -199 rlineto
          -135 hlineto
          endchar
        </CharString>
        <CharString name="one.denominator">
          -277 0 107 336 -20 hstem
          -18 hmoveto
          299 hlineto
          22 107 rlineto
          -90 hlineto
          72 336 rlineto
          -110 hlineto
          -2 -1 -77 -57 -50 hhcurveto
          -23 -109 rlineto
          38 68 34 19 21 hvcurveto
          -47 -221 rlineto
          -99 hlineto
          endchar
        </CharString>
        <CharString name="one.lnum">
          -103 0 170 276 174 95 -20 hstem
          -1 hmoveto
          450 -89 callgsubr
          -120 hlineto
          115 545 rlineto
          -194 hlineto
          -4 -2 -107 -91 -68 hhcurveto
          -37 -174 rlineto
          51 97 55 31 28 hvcurveto
          -77 -362 4 callgsubr
          hlineto
          endchar
        </CharString>
        <CharString name="one.numerator">
          -324 288 107 336 -20 hstem
          248 395 -85 callgsubr
          endchar
        </CharString>
        <CharString name="oneeighth">
          252 25 callsubr
          13 107 -60 105 291 -20 hstemhm
          446 -50 callsubr
          hintmask 1011011010000000
          605 -6 -30 callsubr
          hintmask 1010110101000000
          -81 callsubr
          hintmask 1011011010000000
          -83 callgsubr
          hintmask 1010110101000000
          -27 -28 10 17 -60 callgsubr
          hvcurveto
          hintmask 0111011010000000
          -406 120 -85 callgsubr
          -162 -405 -87 callgsubr
          endchar
        </CharString>
        <CharString name="onehalf">
          258 0 107 -96 -21 298 107 -56 106 286 -20 hstemhm
          738 122 hintmask 10011100
          435 hmoveto
          360 hlineto
          22 107 rlineto
          -186 hlineto
          6 26 34 13 43 13 rrcurveto
          57 16 89 44 112 vvcurveto
          75 -51 39 -90 -94 -76 -32 -38 -36 30 callgsubr
          -67 -20 -69 -29 hvcurveto
          -110 -46 -33 -50 -24 -114 rrcurveto
          hintmask 01101100
          -180 395 -85 callgsubr
          -174 -405 -87 callgsubr
          endchar
        </CharString>
        <CharString name="oneinferior">
          -278 -90 107 336 -20 hstem
          193 17 rmoveto
          72 336 rlineto
          -110 hlineto
          -2 -1 -77 -57 -50 hhcurveto
          -23 -109 rlineto
          38 68 34 19 21 hvcurveto
          -47 -221 rlineto
          -99 hlineto
          -23 -107 rlineto
          299 hlineto
          22 107 rlineto
          endchar
        </CharString>
        <CharString name="onequarter">
          223 1 190 -180 -21 94 107 97 107 336 -20 hstemhm
          hintmask 10011000
          593 1 rmoveto
          107 hlineto
          hintmask 01111000
          18 83 rlineto
          61 8 callgsubr
          -61 hlineto
          53 250 rlineto
          -74 hlineto
          -290 -250 -23 -107 rlineto
          203 hlineto
          hintmask 10011000
          22 callsubr
          -382 204 -85 callgsubr
          hintmask 01111000
          -139 -405 -87 callgsubr
          endchar
        </CharString>
        <CharString name="onesuperior">
          -325 378 107 336 -20 hstem
          266 485 -85 callgsubr
          endchar
        </CharString>
        <CharString name="onethird">
          243 -6 110 -93 -21 190 99 9 107 -50 101 285 -20 hstemhm
          700 13 callsubr
          hintmask 10110110
          588 -6 rmoveto
          -46 callsubr
          hintmask 10101101
          -89 callsubr
          hintmask 10110110
          -79 callgsubr
          -350 401 rmoveto
          72 336 rlineto
          -110 hlineto
          -2 -1 -61 -57 -39 hhcurveto
          -23 -109 rlineto
          29 53 34 19 18 hvcurveto
          -47 -221 rlineto
          -53 hlineto
          -23 -107 rlineto
          214 8 callgsubr
          hintmask 01110110
          -177 -405 -87 callgsubr
          endchar
        </CharString>
        <CharString name="oogonek">
          -42 -198 -21 369 226 0 160 hstemhm
          7 198 -117 117 8 callsubr
          hintmask 10110100
          219 -219 -37 callsubr
          171 30 103 146 145 vvcurveto
          119 -72 100 -153 -212 -129 -163 -164 -107 59 -93 125 -16 vhcurveto
          hintmask 11001100
          -67 -38 -36 -45 -40 -38 callgsubr
          47 369 rmoveto
          -38 -23 31 51 83 50 61 59 38 23 -31 -51 -83 -50 -61 -59 hvcurveto
          endchar
        </CharString>
        <CharString name="ordfeminine">
          -203 333 95 77 72 49 89 hstem
          61 126 110 128 vstem
          155 333 rmoveto
          42 43 22 43 38 hvcurveto
          -14 vlineto
          -34 19 -17 46 15 23 2 5 23 vhcurveto
          24 112 rlineto
          -17 1 -8 5 15 vvcurveto
          4 1 4 1 6 vhcurveto
          15 71 rlineto
          3 16 2 15 14 vvcurveto
          74 -49 38 -91 -58 -52 -15 -32 -51 vhcurveto
          20 -82 rlineto
          26 40 32 14 38 hhcurveto
          31 12 -11 -23 -5 -1 -6 -1 -7 hvcurveto
          -2 -11 rlineto
          9 -14 -21 5 -25 hhcurveto
          -95 -77 -64 -85 -55 37 -40 57 hvcurveto
          59 95 rmoveto
          -16 -11 12 16 27 26 22 28 11 16 -4 -6 10 hvcurveto
          -6 -27 rlineto
          -20 -5 -34 -20 -19 hhcurveto
          endchar
        </CharString>
        <CharString name="ordmasculine">
          -213 333 112 158 112 hstem
          71 134 107 134 vstem
          218 333 rmoveto
          143 85 116 116 82 -46 68 -101 -142 -86 -115 -116 -82 47 -69 100 hvcurveto
          24 112 rmoveto
          -23 -14 21 34 58 32 45 38 24 13 -21 -34 -58 -32 -45 -38 hvcurveto
          endchar
        </CharString>
        <CharString name="oslash">
          43 callsubr
          hstemhm
          7 198 171 197 hintmask 01101100
          -52 -6 rmoveto
          99 hlineto
          41 38 rlineto
          hintmask 10011100
          -7 callsubr
          hintmask 01101100
          20 callgsubr
          hintmask 10101100
          -32 callsubr
          endchar
        </CharString>
        <CharString name="oslashacute">
          43 callsubr
          218 -20 hstemhm
          7 198 171 197 hintmask 01101110
          -52 -6 rmoveto
          99 hlineto
          41 38 rlineto
          hintmask 10011110
          -7 callsubr
          hintmask 01101110
          20 callgsubr
          hintmask 10101110
          -32 callsubr
          323 503 -61 callsubr
        </CharString>
        <CharString name="otilde">
          0 callsubr
          36 -63 callgsubr
          23 callgsubr
          hintmask 11100110
          -94 callsubr
          160 422 -43 callsubr
        </CharString>
        <CharString name="p">
          -11 33 callsubr
          26 callgsubr
          hstemhm
          404 199 hintmask 11101000
          -62 -213 rmoveto
          -65 callsubr
          62 291 rlineto
          -57 15 48 -31 71 hhcurveto
          145 134 154 180 123 -70 89 -111 -75 -57 -32 -57 -47 hvcurveto
          hintmask 11011000
          17 79 rlineto
          -165 hlineto
          197 -376 rmoveto
          -35 -28 35 46 -7 hvcurveto
          20 91 rlineto
          hintmask 11101000
          36 32 27 18 31 hhcurveto
          46 26 -33 -50 -75 -56 -68 -56 hvcurveto
          endchar
        </CharString>
        <CharString name="paragraph">
          46 -59 -21 650 140 hstem
          60 158 vstem
          60 377 rmoveto
          -112 53 -77 89 vhcurveto
          -57 -268 rlineto
          160 hlineto
          57 268 rlineto
          26 hlineto
          -57 -268 rlineto
          160 hlineto
          138 650 rlineto
          67 hlineto
          30 -15 callsubr
          -332 hlineto
          -206 -128 -130 -203 hvcurveto
          158 10 rmoveto
          86 40 90 26 7 vhcurveto
          -52 -242 rlineto
          -9 3 -5 25 31 vvcurveto
          200 -59 rmoveto
          -26 hlineto
          51 242 rlineto
          27 hlineto
          endchar
        </CharString>
        <CharString name="parenleft">
          -301 -45 -21 838 -20 hstem
          26 178 vstem
          26 266 rmoveto
          -112 34 -126 39 -94 vhcurveto
          153 67 rlineto
          -27 93 -21 98 83 vvcurveto
          110 59 137 145 192 vhcurveto
          -132 58 rlineto
          -140 -181 -110 -151 -174 vvcurveto
          endchar
        </CharString>
        <CharString name="parenright">
          -302 -45 -21 838 -20 hstem
          151 178 vstem
          329 430 rmoveto
          105 -30 124 -39 113 vhcurveto
          -157 -58 rlineto
          13 -39 35 -132 -118 vvcurveto
          -154 -86 -117 -109 -153 vhcurveto
          124 -67 rlineto
          123 146 126 167 183 vvcurveto
          endchar
        </CharString>
        <CharString name="partialdiff">
          -55 -10 139 175 139 119 154 hstem
          12 182 170 191 vstem
          258 -10 rmoveto
          183 114 152 236 217 -97 121 -160 -76 -70 -27 -46 -59 hvcurveto
          103 -108 rlineto
          17 24 37 10 27 hhcurveto
          53 32 -37 -65 11 hvcurveto
          3 -15 1 -18 -18 vvcurveto
          23 -24 -34 11 -45 hhcurveto
          -137 -132 -99 -139 -123 104 -92 142 hvcurveto
          14 139 rmoveto
          -43 -35 37 47 51 40 40 50 45 35 -34 -45 -51 -46 -45 -46 hvcurveto
          endchar
        </CharString>
        <CharString name="percent">
          188 42 callsubr
          86 58 callgsubr
          hintmask 1111011010000000
          227 404 62 callgsubr
          16 callsubr
          12 -22 -28 -45 -32 -41 -27 hvcurveto
          308 -504 62 callgsubr
          hvcurveto
          hintmask 1110110110000000
          16 callsubr
          11 -22 -28 -45 -31 -41 -27 hvcurveto
          -438 -90 -87 callgsubr
          endchar
        </CharString>
        <CharString name="period">
          -383 0 184 hstem
          141 50 callsubr
          endchar
        </CharString>
        <CharString name="periodcentered">
          -383 238 184 hstem
          190 238 49 callgsubr
          endchar
        </CharString>
        <CharString name="perthousand">
          579 42 callsubr
          89 58 callgsubr
          40 131 88 131 hintmask 1111011011100000
          232 404 rmoveto
          105 101 84 100 74 -55 58 -88 -105 -101 -84 -100 -74 55 -6 callgsubr
          12 -22 -28 -45 -32 -41 -26 hvcurveto
          309 -504 rmoveto
          105 101 84 100 74 -56 58 -87 hvcurveto
          hintmask 1110110111100000
          -105 -101 -84 -100 -74 55 -6 callgsubr
          11 -22 -27 -46 -31 -41 -26 hvcurveto
          372 -90 rmoveto
          105 101 84 100 74 -56 58 -88 -105 -101 -84 -100 -74 56 -6 callgsubr
          11 -22 -27 -46 -31 -41 -26 hvcurveto
          -829 -90 -87 callgsubr
          endchar
        </CharString>
        <CharString name="pi">
          102 0 149 -138 -21 372 160 hstemhm
          114 189 70 190 hintmask 01111000
          531 -10 rmoveto
          50 62 13 21 45 hvcurveto
          -24 -15 callsubr
          hintmask 10111000
          -9 -16 -20 -6 -16 hhcurveto
          -32 -17 21 39 hvcurveto
          153 80 160 -599 -160 70 -362 189 362 70 -220 vlineto
          hintmask 01111000
          -98 57 -54 101 vhcurveto
          endchar
        </CharString>
        <CharString name="plus">
          -197 206 -21 95 150 95 -20 hstem
          145 170 vstem
          315 430 rmoveto
          95 -170 -95 -85 -150 85 -95 170 95 85 150 vlineto
          endchar
        </CharString>
        <CharString name="plusminus">
          -95 1 150 161 150 115 -20 hstem
          176 170 vstem
          450 1 rmoveto
          150 -380 -150 vlineto
          276 461 rmoveto
          115 -170 -115 -105 -150 105 -115 170 115 105 150 vlineto
          endchar
        </CharString>
        <CharString name="product">
          119 -69 -21 640 160 hstem
          147 185 131 185 vstem
          463 -90 rmoveto
          185 640 80 160 -661 -160 80 -640 185 640 131 hlineto
          endchar
        </CharString>
        <CharString name="q">
          -11 33 callsubr
          26 callgsubr
          hstemhm
          7 198 hintmask 11011000
          169 -10 rmoveto
          72 61 31 57 39 hvcurveto
          -37 -174 rlineto
          -2 -9 -1 -8 -8 vvcurveto
          -57 46 -35 63 29 43 4 6 35 vhcurveto
          -38 callsubr
          rlineto
          -27 1 -11 8 20 vvcurveto
          6 1 7 2 8 vhcurveto
          110 519 -7 callgsubr
          hvcurveto
          109 160 -3 callgsubr
        </CharString>
        <CharString name="q.alt">
          -11 -193 -21 204 160 26 callgsubr
          hstemhm
          7 198 hintmask 11011000
          279 -214 rmoveto
          -65 callsubr
          157 740 -7 callgsubr
          72 61 31 57 39 hvcurveto
          -63 72 -3 callgsubr
        </CharString>
        <CharString name="question">
          -155 0 164 402 153 hstem
          327 170 vstem
          236 259 rmoveto
          9 44 76 15 64 40 rrcurveto
          64 40 48 53 108 vvcurveto
          116 -87 44 -85 -92 -86 -48 -81 -49 vhcurveto
          103 -86 rlineto
          19 17 24 43 43 hhcurveto
          24 18 -16 -25 -40 -37 -29 -103 -50 hvcurveto
          -78 -39 -16 -51 -12 -57 rrcurveto
          103 -259 rmoveto
          35 164 rlineto
          -155 hlineto
          -35 -164 rlineto
          endchar
        </CharString>
        <CharString name="questiondown">
          -161 -213 153 402 164 hstem
          -38 170 vstem
          223 247 rmoveto
          -9 -44 -76 -15 -64 -40 rrcurveto
          -64 -40 -48 -53 -108 vvcurveto
          -116 87 -44 85 92 86 48 81 49 vhcurveto
          -103 86 rlineto
          -19 -17 -24 -43 -43 hhcurveto
          -24 -18 16 25 40 37 29 103 50 hvcurveto
          78 39 16 51 12 57 rrcurveto
          -103 259 rmoveto
          -35 -164 rlineto
          155 hlineto
          35 164 rlineto
          endchar
        </CharString>
        <CharString name="quotedbl">
          -165 17 callgsubr
          368 hmoveto
          50 234 rlineto
          -160 hlineto
          -50 -234 rlineto
          endchar
        </CharString>
        <CharString name="quotedblbase">
          -105 -130 -21 151 184 hstem
          112 -151 rmoveto
          -3 callsubr
          51 hlineto
          -57 -151 rlineto
          365 hmoveto
          -3 callsubr
          52 hlineto
          -58 -151 rlineto
          endchar
        </CharString>
        <CharString name="quotedblleft">
          -115 439 160 131 -20 hstem
          180 730 rmoveto
          -24 callsubr
          100 hmoveto
          -24 callsubr
          endchar
        </CharString>
        <CharString name="quotedblright">
          -128 522 -21 131 160 hstem
          468 501 rmoveto
          -23 callgsubr
          -100 hmoveto
          -23 callgsubr
          endchar
        </CharString>
        <CharString name="quoteleft">
          -345 460 -21 291 -20 hstem
          180 730 rmoveto
          -24 callsubr
          endchar
        </CharString>
        <CharString name="quoteright">
          -358 522 -21 291 -20 hstem
          238 501 rmoveto
          -23 callgsubr
          endchar
        </CharString>
        <CharString name="quotesinglbase">
          -339 -130 -21 172 -21 184 -20 hstem
          112 -151 rmoveto
          -3 callsubr
          51 hlineto
          -57 -151 rlineto
          endchar
        </CharString>
        <CharString name="quotesingle">
          -373 17 callgsubr
          endchar
        </CharString>
        <CharString name="r">
          -1 callgsubr
          hstemhm
          hintmask 11000000
          -16 hmoveto
          -64 callgsubr
          hintmask 10100000
          -54 callsubr
          hintmask 11000000
          2 callgsubr
          endchar
        </CharString>
        <CharString name="racute">
          -1 callgsubr
          214 -20 hstemhm
          hintmask 11010000
          435 730 -98 callgsubr
          -334 -576 rmoveto
          -64 callgsubr
          hintmask 10110000
          -54 callsubr
          hintmask 11010000
          2 callgsubr
          endchar
        </CharString>
        <CharString name="radical">
          -61 21 -21 266 129 395 -20 hstem
          13 266 rmoveto
          123 hlineto
          77 -266 rlineto
          244 hlineto
          152 790 rlineto
          -164 hlineto
          -112 -663 -73 268 rlineto
          -247 hlineto
          endchar
        </CharString>
        <CharString name="rcaron">
          -229 21 61 callgsubr
          0 47 -37 -20 214 -20 hstemhm
          hintmask 10101000
          204 573 -93 callsubr
          -136 -688 rmoveto
          35 callgsubr
          hintmask 11001000
          37 36 64 15 68 hhcurveto
          36 171 rlineto
          hintmask 10011000
          -54 callsubr
          hintmask 11001000
          2 callgsubr
          endchar
        </CharString>
        <CharString name="rcommaaccent">
          -229 -6 callsubr
          67 34 callgsubr
          hstemhm
          hintmask 11100000
          59 -91 callgsubr
          7 213 rmoveto
          -64 callgsubr
          hintmask 11010000
          -54 callsubr
          hintmask 11100000
          2 callgsubr
          endchar
        </CharString>
        <CharString name="rdblgrave">
          -1 callgsubr
          214 -20 hstemhm
          hintmask 11010000
          -16 hmoveto
          -64 callgsubr
          hintmask 10110000
          -54 callsubr
          hintmask 11010000
          2 callgsubr
          214 48 -95 callsubr
        </CharString>
        <CharString name="rdotbelow">
          -229 -27 callgsubr
          84 34 callgsubr
          hstemhm
          hintmask 11100000
          -16 hmoveto
          -64 callgsubr
          hintmask 11010000
          -54 callsubr
          hintmask 11100000
          2 callgsubr
          25 -739 -100 callgsubr
        </CharString>
        <CharString name="registered">
          225 -7 63 401 115 79 64 hstem
          57 74 139 132 82 130 141 74 vstem
          440 -7 rmoveto
          222 167 155 207 206 -167 154 -222 -222 -161 -154 -206 -207 161 -155 222 hvcurveto
          1 63 rmoveto
          -182 -128 133 165 165 128 132 182 181 133 -132 -167 -170 -137 -126 -177 hvcurveto
          -171 88 rmoveto
          132 131 18 hlineto
          81 -131 rlineto
          147 hlineto
          -96 157 rlineto
          37 27 25 47 47 vvcurveto
          73 -61 77 -84 vhcurveto
          -199 hlineto
          132 -185 rmoveto
          70 51 vlineto
          14 17 -4 -31 -28 -14 -7 -15 hvcurveto
          endchar
        </CharString>
        <CharString name="ring">
          -374 556 54 66 54 hstem
          15 79 77 78 vstem
          15 626 -88 callgsubr
          endchar
        </CharString>
        <CharString name="rinvertedbreve">
          -1 callgsubr
          52 -8 callgsubr
          333 99 hintmask 11010100
          -16 hmoveto
          -64 callgsubr
          hintmask 10110100
          -54 callsubr
          hintmask 11010100
          2 callgsubr
          20 42 rmoveto
          97 hlineto
          hintmask 11001100
          -77 callsubr
          hintmask 11010100
          -95 callgsubr
        </CharString>
        <CharString name="s">
          -152 -10 -2 callgsubr
          191 -10 -99 callsubr
          endchar
        </CharString>
        <CharString name="s_t">
          240 -10 133 -133 172 -152 -21 394 154 -131 131 -11 -20 145 79 hstemhm
          42 175 45 181 -49 76 133 193 hintmask 0100101110100000
          196 -10 rmoveto
          150 97 88 117 72 -36 27 -124 39 hvcurveto
          -47 15 -19 3 22 vvcurveto
          21 16 12 31 vhcurveto
          hintmask 1000011101100000
          33 38 -13 -34 59 hvcurveto
          95 121 rlineto
          -14 19 -5 29 21 vvcurveto
          57 37 45 53 31 12 -15 -34 -19 -4 -25 -6 -32 vhcurveto
          -61 hlineto
          hintmask 0011001110100000
          -30 -26 callgsubr
          -51 -241 rlineto
          -4 -17 -1 -17 -11 vvcurveto
          -81 54 -27 72 56 65 17 23 58 vhcurveto
          150 vlineto
          hintmask 0101001110100000
          -10 -27 -24 -7 -19 hhcurveto
          -19 -9 7 26 2 0 4 2 8 hvcurveto
          37 174 rlineto
          97 hlineto
          hintmask 1000011101100000
          30 143 rlineto
          -97 hlineto
          8 35 5 33 25 vvcurveto
          69 -37 42 -123 -173 -69 -84 -100 -12 1 -18 5 -11 vhcurveto
          hintmask 0101001110100000
          27 -38 -59 5 -26 hhcurveto
          -114 -121 -92 -119 -69 40 -26 109 -36 hvcurveto
          59 -19 12 -5 -19 vvcurveto
          -19 -12 -10 -33 -49 -57 21 38 -58 vhcurveto
          -96 -129 rlineto
          -36 54 102 -27 83 hhcurveto
          endchar
        </CharString>
        <CharString name="sacute">
          19 callgsubr
          469 730 -98 callgsubr
          -161 -586 -99 callsubr
          endchar
        </CharString>
        <CharString name="scaron">
          32 callgsubr
          0 36 56 callgsubr
          35 184 32 190 hintmask 10111100
          230 573 -93 callsubr
          45 -698 rmoveto
          149 101 84 122 3 callsubr
          hvcurveto
          1 callsubr
          hintmask 11011100
          20 15 12 22 35 33 -17 -42 55 vhcurveto
          95 114 rlineto
          61 -57 -60 15 -74 hhcurveto
          -136 -112 -94 -117 -61 46 -32 114 -38 hvcurveto
          43 -14 13 -13 -15 vvcurveto
          -18 -9 -12 -27 -47 -54 25 44 -53 vhcurveto
          -88 -114 rlineto
          -57 46 85 -31 87 hhcurveto
          endchar
        </CharString>
        <CharString name="schwa">
          -46 -10 135 82 114 79 136 hstem
          2 199 171 197 vstem
          227 -10 rmoveto
          213 129 165 165 117 -74 99 -152 -124 -99 -59 -84 -59 hvcurveto
          151 -46 rlineto
          33 17 42 20 37 hhcurveto
          33 31 -19 -44 -5 0 -6 -1 -5 hvcurveto
          -345 hlineto
          -14 -37 -10 -47 -40 vvcurveto
          -116 71 -91 154 vhcurveto
          31 135 rmoveto
          -37 -20 25 42 5 0 5 1 5 hvcurveto
          149 hlineto
          -51 -17 -34 -31 -42 hhcurveto
          endchar
        </CharString>
        <CharString name="scircumflex">
          19 callgsubr
          231 573 -103 callgsubr
          47 -625 -99 callsubr
          endchar
        </CharString>
        <CharString name="sdotbelow">
          -152 -27 callgsubr
          53 -2 callgsubr
          191 -10 -99 callsubr
          29 -203 -100 callgsubr
        </CharString>
        <CharString name="section">
          -102 -88 180 455 168 hstemhm
          61 182 -164 195 -15 205 -160 185 hintmask 11010100
          457 232 rmoveto
          5 11 27 43 52 vvcurveto
          107 -100 35 -86 4 vhcurveto
          -14 1 -15 2 19 vvcurveto
          26 15 15 30 38 13 -23 -24 9 vhcurveto
          159 68 rlineto
          50 -22 -49 97 -125 hhcurveto
          -144 -119 -122 -116 -33 7 -27 4 -11 hvcurveto
          hintmask 11101000
          -3 -13 -26 -24 -64 vvcurveto
          -81 52 -64 120 -10 vhcurveto
          12 -1 14 -2 -16 vvcurveto
          -25 -21 -14 -28 -29 -28 13 38 -23 vhcurveto
          -146 -116 rlineto
          -35 17 69 -80 110 hhcurveto
          105 179 67 197 24 -3 21 -4 11 hvcurveto
          -214 75 rmoveto
          13 7 12 6 5 vhcurveto
          -2 13 -4 12 hhcurveto
          hintmask 11100100
          11 14 -7 -19 -10 -5 -13 -8 -7 hvcurveto
          -14 6 -34 -5 29 vvcurveto
          endchar
        </CharString>
        <CharString name="semicolon">
          -336 -136 -21 178 -21 335 184 hstem
          235 39 callsubr
          -4 -492 10 callsubr
        </CharString>
        <CharString name="servicemark">
          188 401 82 -67 -21 234 81 6 -20 hstemhm
          hintmask 10100000
          617 579 rmoveto
          131 -182 vlineto
          -66 -309 rlineto
          15 callsubr
          65 309 rlineto
          -182 hlineto
          -283 -28 rmoveto
          hintmask 10010000
          22 -44 -45 12 -39 hhcurveto
          -84 -68 -55 -69 -36 26 -23 68 -18 hvcurveto
          36 -10 12 -4 -7 vvcurveto
          -8 -9 -3 -19 -30 -36 13 22 -38 vhcurveto
          -61 -86 rlineto
          hintmask 01100000
          -21 34 64 -16 51 hhcurveto
          91 62 48 72 39 -27 22 -74 19 hvcurveto
          -34 9 -10 4 8 vvcurveto
          10 13 3 15 25 21 -9 -19 40 vhcurveto
          endchar
        </CharString>
        <CharString name="seven">
          -55 -105 -21 537 173 hstem
          -55 -126 18 callgsubr
        </CharString>
        <CharString name="seven.denominator">
          -232 22 53 callsubr
          -26 1 -51 callsubr
          216 hlineto
          endchar
        </CharString>
        <CharString name="seven.lnum">
          -52 22 -21 537 173 hstem
          -22 1 18 callgsubr
        </CharString>
        <CharString name="seven.numerator">
          -234 312 53 callsubr
          35 291 -51 callsubr
          217 hlineto
          endchar
        </CharString>
        <CharString name="seveneighths">
          243 25 callsubr
          60 105 182 109 hstemhm
          438 -50 callsubr
          hintmask 1011110100000000
          597 -6 -30 callsubr
          hintmask 1011101010000000
          -81 callsubr
          hintmask 1011110100000000
          -83 callgsubr
          hintmask 0111101010000000
          -27 -28 10 17 -60 callgsubr
          hvcurveto
          -537 -285 -87 callgsubr
          2 226 -51 callsubr
          217 hlineto
          endchar
        </CharString>
        <CharString name="seveninferior">
          -232 -68 53 callsubr
          -45 -89 -51 callsubr
          216 hlineto
          endchar
        </CharString>
        <CharString name="sevensuperior">
          -231 402 53 callsubr
          55 381 -51 callsubr
          217 hlineto
          endchar
        </CharString>
        <CharString name="six">
          -75 callgsubr
        </CharString>
        <CharString name="six.denominator">
          -207 -6 54 callgsubr
          5 98 167 105 vstem
          152 -6 rmoveto
          119 104 81 96 70 -58 52 -96 -29 -42 -5 -14 -24 hvcurveto
          42 11 42 24 57 hhcurveto
          38 34 -11 -21 18 hvcurveto
          78 77 rlineto
          39 -31 -51 20 -59 hhcurveto
          -153 -105 -122 -168 -101 53 -59 94 hvcurveto
          23 100 rmoveto
          -40 -32 -32 callgsubr
        </CharString>
        <CharString name="six.lnum">
          -75 callgsubr
        </CharString>
        <CharString name="six.numerator">
          -207 280 54 callgsubr
          66 98 167 105 vstem
          436 457 -74 callsubr
          -41 -31 -32 callgsubr
        </CharString>
        <CharString name="sixinferior">
          -207 -96 54 callgsubr
          -14 98 167 105 vstem
          356 81 -74 callsubr
          -40 -32 -32 callgsubr
        </CharString>
        <CharString name="sixsuperior">
          -207 370 54 callgsubr
          85 98 167 105 vstem
          455 547 -74 callsubr
          -40 -32 -32 callgsubr
        </CharString>
        <CharString name="slash">
          134 2 callsubr
          616 710 rmoveto
          -644 -710 rlineto
          209 hlineto
          644 710 rlineto
          endchar
        </CharString>
        <CharString name="space">
          -414 endchar
        </CharString>
        <CharString name="sterling">
          -71 57 callsubr
          87 140 174 153 hstemhm
          116 165 hintmask 01011100
          49 248 rmoveto
          68 hlineto
          -23 -52 -43 -47 -41 -24 63 callsubr
          hintmask 10011100
          65 63 21 callsubr
          hintmask 00111100
          -40 -40 15 -39 hhcurveto
          hintmask 10011100
          -21 -23 -4 -11 -34 hvcurveto
          39 35 26 33 16 34 rrcurveto
          168 hlineto
          30 -15 callsubr
          -182 hlineto
          -5 39 -9 36 29 -10 callsubr
          -34 7 -37 5 -36 hvcurveto
          -50 hlineto
          endchar
        </CharString>
        <CharString name="summation">
          -2 0 160 410 140 hstem
          580 710 rmoveto
          -506 -125 hlineto
          196 -229 -203 -231 rlineto
          -125 513 160 -303 4 vlineto
          178 205 -169 197 rlineto
          4 294 vlineto
          endchar
        </CharString>
        <CharString name="t">
          -222 -11 12 callgsubr
          hstem
          172 -11 rmoveto
          55 66 17 23 58 hvcurveto
          -92 callsubr
          -79 55 -28 72 vhcurveto
          endchar
        </CharString>
        <CharString name="t.alt">
          -212 21 -21 356 170 165 -20 hstem
          39 hmoveto
          -4 callgsubr
          75 356 rlineto
          114 -89 callgsubr
          -114 hlineto
          36 165 rlineto
          -196 hlineto
          -35 -165 rlineto
          -76 -39 callgsubr
          76 hlineto
          endchar
        </CharString>
        <CharString name="tbar">
          -220 -11 173 65 109 47 143 165 -20 hstem
          9 227 rmoveto
          61 hlineto
          -18 -85 -17 callsubr
          -79 55 -28 71 56 5 callsubr
          4 18 rlineto
          97 hlineto
          23 109 rlineto
          -97 hlineto
          10 47 rlineto
          97 hlineto
          30 143 rlineto
          -96 hlineto
          35 165 -81 callgsubr
          -35 -165 -65 callgsubr
          -10 -47 rlineto
          -61 hlineto
          endchar
        </CharString>
        <CharString name="tcaron">
          -222 -11 173 221 143 204 -20 hstem
          502 -40 callgsubr
          -217 -599 rmoveto
          55 66 17 23 58 hvcurveto
          -92 callsubr
          -79 55 -28 72 vhcurveto
          endchar
        </CharString>
        <CharString name="tdotbelow">
          -222 -27 callgsubr
          52 12 callgsubr
          hstem
          172 -11 rmoveto
          55 66 17 23 58 hvcurveto
          -92 callsubr
          -79 55 -28 72 vhcurveto
          40 -202 -100 callgsubr
        </CharString>
        <CharString name="thorn">
          -62 -192 -21 182 170 235 170 166 -20 hstem
          368 186 vstem
          -62 -213 rmoveto
          -4 callgsubr
          42 199 rlineto
          -10 7 16 -7 36 hhcurveto
          189 131 195 159 113 -67 108 -133 -34 -22 -7 -12 -8 hvcurveto
          39 185 rlineto
          -195 hlineto
          128 -571 rmoveto
          -33 -14 19 16 hvcurveto
          33 153 rlineto
          29 20 25 18 26 hhcurveto
          29 20 -20 -47 -83 -40 -85 -66 hvcurveto
          endchar
        </CharString>
        <CharString name="three">
          -76 -147 174 136 132 120 161 hstemhm
          289 192 -153 215 hintmask 11110000
          158 -147 rmoveto
          193 130 95 146 73 -38 58 -62 12 hvcurveto
          hintmask 11101000
          84 16 78 85 90 vvcurveto
          89 -78 59 -127 -103 -110 -37 -53 -57 vhcurveto
          90 -141 rlineto
          46 39 44 24 41 hhcurveto
          30 16 -15 -25 -48 -48 -32 -64 hvcurveto
          -34 hlineto
          -28 -132 rlineto
          30 hlineto
          hintmask 11110000
          73 32 -17 -39 -52 -27 -28 -78 -51 -36 14 30 -30 hvcurveto
          -125 -138 rlineto
          -54 50 69 -26 97 hhcurveto
          endchar
        </CharString>
        <CharString name="three.denominator">
          -230 -6 24 callgsubr
          233 13 callsubr
          hintmask 11110000
          121 -6 rmoveto
          -46 callsubr
          hintmask 11101000
          -89 callsubr
          hintmask 11110000
          -79 callgsubr
          endchar
        </CharString>
        <CharString name="three.lnum">
          -73 -9 174 126 157 105 166 hstemhm
          308 197 -152 152 -152 209 hintmask 11101000
          185 -9 rmoveto
          140 180 70 172 76 -35 60 -64 11 hvcurveto
          hintmask 11100100
          86 17 70 67 89 vvcurveto
          96 -83 70 -126 -85 -110 -31 -59 -64 vhcurveto
          90 -141 rlineto
          18 16 47 47 69 hhcurveto
          10 27 -1 -31 -53 -83 -20 -87 hvcurveto
          -31 hlineto
          -33 -157 rlineto
          31 hlineto
          hintmask 11110000
          106 52 -14 -47 -43 -45 -22 -47 -83 -10 67 7 -5 hvcurveto
          -125 -132 rlineto
          -80 29 63 -36 100 hhcurveto
          endchar
        </CharString>
        <CharString name="three.numerator">
          -230 279 24 callgsubr
          293 13 callsubr
          hintmask 11110000
          181 41 callgsubr
          hintmask 11101000
          -89 callsubr
          hintmask 11110000
          -79 callgsubr
          endchar
        </CharString>
        <CharString name="threeeighths">
          266 25 callsubr
          4 110 -54 105 25 99 66 101 hstemhm
          306 13 callsubr
          9 -50 callsubr
          hintmask 1011011101010000
          27 callsubr
          hintmask 1011011011010000
          -89 callsubr
          hintmask 1011011101010000
          -79 callgsubr
          423 -285 -30 callsubr
          hintmask 1010111100101000
          -81 callsubr
          hintmask 1011011101010000
          -83 callgsubr
          hintmask 0110111100101000
          -27 -28 10 17 -60 callgsubr
          hvcurveto
          -505 -285 -87 callgsubr
          endchar
        </CharString>
        <CharString name="threeinferior">
          -231 -96 24 callgsubr
          213 13 callsubr
          hintmask 11110000
          101 -96 rmoveto
          -46 callsubr
          hintmask 11101000
          -89 callsubr
          hintmask 11110000
          -79 callgsubr
          endchar
        </CharString>
        <CharString name="threequarters">
          243 1 190 -180 -21 94 107 88 24 callgsubr
          306 13 callsubr
          hintmask 10011110
          27 callsubr
          hintmask 10011101
          -89 callsubr
          hintmask 10011110
          -79 callgsubr
          415 -278 rmoveto
          107 hlineto
          hintmask 01111110
          18 83 rlineto
          61 8 callgsubr
          -61 hlineto
          53 250 rlineto
          -74 hlineto
          -290 -250 -23 -107 rlineto
          203 hlineto
          hintmask 10011110
          22 callsubr
          hintmask 01111110
          -435 -201 -87 callgsubr
          endchar
        </CharString>
        <CharString name="threesuperior">
          -230 369 24 callgsubr
          312 13 callsubr
          hintmask 11110000
          203 369 rmoveto
          101 117 43 103 48 -26 39 -55 9 hvcurveto
          hintmask 11101000
          64 9 51 39 56 vvcurveto
          61 -60 45 -96 -63 -76 -19 -37 -42 vhcurveto
          49 -89 rlineto
          26 33 32 18 49 hhcurveto
          20 35 -3 -22 -29 -60 -12 -76 hvcurveto
          -23 hlineto
          -21 -99 rlineto
          24 hlineto
          hintmask 11110000
          84 48 -9 -29 -28 -46 -10 -40 -75 -17 36 9 -9 hvcurveto
          -74 -84 rlineto
          -49 35 44 -22 73 hhcurveto
          endchar
        </CharString>
        <CharString name="tilde">
          -191 572 -63 callgsubr
          hintmask 10000000
          272 572 rmoveto
          hintmask 00100000
          -71 callgsubr
          hintmask 10000000
          -48 callgsubr
          hintmask 00100000
          -43 -12 51 -63 hhcurveto
          hintmask 10000000
          -71 callsubr
          hintmask 01000000
          2 10 46 43 vhcurveto
          hintmask 10000000
          -51 callgsubr
        </CharString>
        <CharString name="trademark">
          250 422 -21 191 120 -2 -20 hstemhm
          hintmask 11000000
          446 712 rmoveto
          -300 hlineto
          66 callgsubr
          90 hlineto
          -40 -191 rlineto
          119 hlineto
          41 191 rlineto
          90 hlineto
          3 -191 rmoveto
          15 callsubr
          hintmask 10100000
          65 309 rlineto
          -182 hlineto
          -57 -131 rlineto
          131 -182 vlineto
          endchar
        </CharString>
        <CharString name="two">
          -54 0 170 247 164 hstem
          340 217 vstem
          -31 hmoveto
          508 -89 callgsubr
          -197 hlineto
          41 24 35 22 34 21 rrcurveto
          79 50 52 50 100 vvcurveto
          90 -65 54 -127 -108 -116 -38 -57 -64 vhcurveto
          90 -141 rlineto
          50 53 39 22 38 hhcurveto
          27 16 -13 -25 -35 -13 -7 -160 -80 hvcurveto
          -117 -58 -53 -66 -28 -133 rrcurveto
          endchar
        </CharString>
        <CharString name="two.denominator">
          -204 0 107 232 106 hstem
          276 126 vstem
          -38 hmoveto
          373 hlineto
          -52 callgsubr
        </CharString>
        <CharString name="two.lnum">
          -23 0 170 380 168 hstem
          388 222 vstem
          -25 hmoveto
          525 -89 callgsubr
          -240 hlineto
          9 43 70 33 55 31 rrcurveto
          130 74 50 58 132 vvcurveto
          113 -72 64 -131 -122 -116 -53 -60 -66 vhcurveto
          90 -127 rlineto
          37 44 61 35 46 hhcurveto
          22 22 -12 -34 -83 -79 -37 -98 -44 hvcurveto
          -162 -72 -35 -84 -39 -184 rrcurveto
          endchar
        </CharString>
        <CharString name="two.numerator">
          -209 286 107 232 106 hstem
          337 126 vstem
          377 286 -53 callgsubr
        </CharString>
        <CharString name="twoinferior">
          -203 -90 107 232 106 hstem
          257 126 vstem
          316 -90 rmoveto
          -52 callgsubr
        </CharString>
        <CharString name="twosuperior">
          -210 376 107 232 106 hstem
          356 126 vstem
          396 376 -53 callgsubr
        </CharString>
        <CharString name="twothirds">
          265 -6 110 -93 -21 190 99 7 107 -48 101 179 106 hstemhm
          336 122 261 13 callsubr
          hintmask 0110111010000000
          156 -10 rmoveto
          322 347 50 47 46 -83 rlineto
          26 33 32 18 49 hhcurveto
          19 36 -4 -19 -32 -59 -11 -77 hvcurveto
          -23 hlineto
          -21 -99 rlineto
          24 hlineto
          hintmask 1011011100000000
          -79 callgsubr
          -46 callsubr
          hintmask 1010111010000000
          68 10 47 40 55 vvcurveto
          60 -62 45 -92 -52 -58 -12 -23 -42 vhcurveto
          245 235 -67 75 -308 -337 -35 -33 rlineto
          hintmask 0111011100000000
          9 42 rlineto
          -171 hlineto
          6 26 34 13 43 13 rrcurveto
          57 16 89 44 112 vvcurveto
          75 -50 39 -92 -93 -75 -32 -38 -37 30 callgsubr
          -66 -20 -70 -29 hvcurveto
          -109 -45 -35 -51 -23 -114 rrcurveto
          289 hlineto
          -233 -221 rlineto
          endchar
        </CharString>
        <CharString name="u">
          -19 -10 160 376 -20 -102 callgsubr
          endchar
        </CharString>
        <CharString name="u.alt">
          -37 0 150 -139 -21 536 -20 hstemhm
          9 205 hintmask 01110000
          144 -10 rmoveto
          63 68 21 59 46 hvcurveto
          hintmask 10110000
          -15 -70 rlineto
          182 hlineto
          -66 callsubr
          -68 -322 rlineto
          -45 -40 -29 -9 -18 hhcurveto
          -27 -14 16 30 8 1 9 -47 callsubr
          -190 hlineto
          -74 -346 rlineto
          -5 -25 -3 -22 -20 vvcurveto
          hintmask 01110000
          -83 46 -40 89 vhcurveto
          endchar
        </CharString>
        <CharString name="uacute">
          30 callsubr
          515 730 -98 callgsubr
          -266 -586 rmoveto
          83 70 27 65 60 7 callsubr
          -6 -6 vvcurveto
          -53 41 -20 57 20 -11 callsubr
          vhcurveto
          -90 callgsubr
          316 -81 callgsubr
          -69 -322 rlineto
          -45 -39 -28 -9 -23 hhcurveto
          -24 -14 16 30 8 1 9 -47 callsubr
          -189 hlineto
          -74 -346 rlineto
          -5 -24 -3 -22 -20 vvcurveto
          -81 43 -43 80 vhcurveto
          endchar
        </CharString>
        <CharString name="ubreve">
          -19 -10 160 376 -20 62 -9 callsubr
          9 204 1 100 hintmask 11101100
          -106 callsubr
          226 659 -34 callgsubr
          hintmask 11011100
          -94 callgsubr
          hintmask 11101100
          -55 callgsubr
        </CharString>
</ttFont>
